<?xml version="1.0" encoding="utf-8" standalone="no"?>
<!DOCTYPE svg PUBLIC "-//W3C//DTD SVG 1.1//EN"
  "http://www.w3.org/Graphics/SVG/1.1/DTD/svg11.dtd">
<!-- Created with matplotlib (http://matplotlib.org/) -->
<svg height="360pt" version="1.1" viewBox="0 0 540 360" width="540pt" xmlns="http://www.w3.org/2000/svg" xmlns:xlink="http://www.w3.org/1999/xlink">
 <defs>
  <style type="text/css">
*{stroke-linecap:butt;stroke-linejoin:round;}
  </style>
 </defs>
 <g id="figure_1">
  <g id="patch_1">
   <path d="
M0 360
L540 360
L540 0
L0 0
z
" style="fill:#ffffff;"/>
  </g>
  <g id="axes_1">
   <g id="patch_2">
    <path d="
M43.9459 158.167
L172.8 158.167
L172.8 29.3131
L43.9459 29.3131
z
" style="fill:#ffffff;"/>
   </g>
   <g id="PolyCollection_1">
    <defs>
     <path d="
M108.373 -202.864
L63.5454 -221.433
L44.9772 -266.26
L63.5454 -311.087
L108.373 -329.656
L153.2 -311.087
L171.768 -266.26
L153.2 -221.433
z
" id="m0acd9fba27" style="stroke:#000000;"/>
    </defs>
    <g clip-path="url(#p2855b56212)">
     <use style="fill:#bfbfbf;stroke:#000000;" x="0.0" xlink:href="#m0acd9fba27" y="360.0"/>
    </g>
   </g>
   <g id="patch_3">
    <path d="
M43.9459 29.3131
L172.8 29.3131" style="fill:none;stroke:#000000;stroke-linecap:square;stroke-linejoin:miter;"/>
   </g>
   <g id="patch_4">
    <path d="
M172.8 158.167
L172.8 29.3131" style="fill:none;stroke:#000000;stroke-linecap:square;stroke-linejoin:miter;"/>
   </g>
   <g id="patch_5">
    <path d="
M43.9459 158.167
L172.8 158.167" style="fill:none;stroke:#000000;stroke-linecap:square;stroke-linejoin:miter;"/>
   </g>
   <g id="patch_6">
    <path d="
M43.9459 158.167
L43.9459 29.3131" style="fill:none;stroke:#000000;stroke-linecap:square;stroke-linejoin:miter;"/>
   </g>
   <g id="matplotlib.axis_1">
    <g id="xtick_1">
     <g id="line2d_1">
      <defs>
       <path d="
M0 0
L0 -4" id="m93b0483c22" style="stroke:#000000;stroke-width:0.5;"/>
      </defs>
      <g>
       <use style="stroke:#000000;stroke-width:0.5;" x="49.8029291951" xlink:href="#m93b0483c22" y="158.166908646"/>
      </g>
     </g>
     <g id="line2d_2">
      <defs>
       <path d="
M0 0
L0 4" id="m741efc42ff" style="stroke:#000000;stroke-width:0.5;"/>
      </defs>
      <g>
       <use style="stroke:#000000;stroke-width:0.5;" x="49.8029291951" xlink:href="#m741efc42ff" y="29.3130913536"/>
      </g>
     </g>
     <g id="text_1">
      <!-- −1.0 -->
      <defs>
       <path d="
M10.5938 35.5
L73.1875 35.5
L73.1875 27.2031
L10.5938 27.2031
z
" id="BitstreamVeraSans-Roman-2212"/>
       <path d="
M31.7812 66.4062
Q24.1719 66.4062 20.3281 58.9062
Q16.5 51.4219 16.5 36.375
Q16.5 21.3906 20.3281 13.8906
Q24.1719 6.39062 31.7812 6.39062
Q39.4531 6.39062 43.2812 13.8906
Q47.125 21.3906 47.125 36.375
Q47.125 51.4219 43.2812 58.9062
Q39.4531 66.4062 31.7812 66.4062
M31.7812 74.2188
Q44.0469 74.2188 50.5156 64.5156
Q56.9844 54.8281 56.9844 36.375
Q56.9844 17.9688 50.5156 8.26562
Q44.0469 -1.42188 31.7812 -1.42188
Q19.5312 -1.42188 13.0625 8.26562
Q6.59375 17.9688 6.59375 36.375
Q6.59375 54.8281 13.0625 64.5156
Q19.5312 74.2188 31.7812 74.2188" id="BitstreamVeraSans-Roman-30"/>
       <path d="
M12.4062 8.29688
L28.5156 8.29688
L28.5156 63.9219
L10.9844 60.4062
L10.9844 69.3906
L28.4219 72.9062
L38.2812 72.9062
L38.2812 8.29688
L54.3906 8.29688
L54.3906 0
L12.4062 0
z
" id="BitstreamVeraSans-Roman-31"/>
       <path d="
M10.6875 12.4062
L21 12.4062
L21 0
L10.6875 0
z
" id="BitstreamVeraSans-Roman-2e"/>
      </defs>
      <g transform="translate(36.2673041951 171.285033646)scale(0.12 -0.12)">
       <use xlink:href="#BitstreamVeraSans-Roman-2212"/>
       <use x="83.7890625" xlink:href="#BitstreamVeraSans-Roman-31"/>
       <use x="147.412109375" xlink:href="#BitstreamVeraSans-Roman-2e"/>
       <use x="179.19921875" xlink:href="#BitstreamVeraSans-Roman-30"/>
      </g>
     </g>
    </g>
    <g id="xtick_2">
     <g id="line2d_3">
      <g>
       <use style="stroke:#000000;stroke-width:0.5;" x="79.0878876708" xlink:href="#m93b0483c22" y="158.166908646"/>
      </g>
     </g>
     <g id="line2d_4">
      <g>
       <use style="stroke:#000000;stroke-width:0.5;" x="79.0878876708" xlink:href="#m741efc42ff" y="29.3130913536"/>
      </g>
     </g>
     <g id="text_2">
      <!-- −0.5 -->
      <defs>
       <path d="
M10.7969 72.9062
L49.5156 72.9062
L49.5156 64.5938
L19.8281 64.5938
L19.8281 46.7344
Q21.9688 47.4688 24.1094 47.8281
Q26.2656 48.1875 28.4219 48.1875
Q40.625 48.1875 47.75 41.5
Q54.8906 34.8125 54.8906 23.3906
Q54.8906 11.625 47.5625 5.09375
Q40.2344 -1.42188 26.9062 -1.42188
Q22.3125 -1.42188 17.5469 -0.640625
Q12.7969 0.140625 7.71875 1.70312
L7.71875 11.625
Q12.1094 9.23438 16.7969 8.0625
Q21.4844 6.89062 26.7031 6.89062
Q35.1562 6.89062 40.0781 11.3281
Q45.0156 15.7656 45.0156 23.3906
Q45.0156 31 40.0781 35.4375
Q35.1562 39.8906 26.7031 39.8906
Q22.75 39.8906 18.8125 39.0156
Q14.8906 38.1406 10.7969 36.2812
z
" id="BitstreamVeraSans-Roman-35"/>
      </defs>
      <g transform="translate(65.6778876708 171.285033646)scale(0.12 -0.12)">
       <use xlink:href="#BitstreamVeraSans-Roman-2212"/>
       <use x="83.7890625" xlink:href="#BitstreamVeraSans-Roman-30"/>
       <use x="147.412109375" xlink:href="#BitstreamVeraSans-Roman-2e"/>
       <use x="179.19921875" xlink:href="#BitstreamVeraSans-Roman-35"/>
      </g>
     </g>
    </g>
    <g id="xtick_3">
     <g id="line2d_5">
      <g>
       <use style="stroke:#000000;stroke-width:0.5;" x="108.372846146" xlink:href="#m93b0483c22" y="158.166908646"/>
      </g>
     </g>
     <g id="line2d_6">
      <g>
       <use style="stroke:#000000;stroke-width:0.5;" x="108.372846146" xlink:href="#m741efc42ff" y="29.3130913536"/>
      </g>
     </g>
     <g id="text_3">
      <!-- 0.0 -->
      <g transform="translate(99.6250336464 171.285033646)scale(0.12 -0.12)">
       <use xlink:href="#BitstreamVeraSans-Roman-30"/>
       <use x="63.623046875" xlink:href="#BitstreamVeraSans-Roman-2e"/>
       <use x="95.41015625" xlink:href="#BitstreamVeraSans-Roman-30"/>
      </g>
     </g>
    </g>
    <g id="xtick_4">
     <g id="line2d_7">
      <g>
       <use style="stroke:#000000;stroke-width:0.5;" x="137.657804622" xlink:href="#m93b0483c22" y="158.166908646"/>
      </g>
     </g>
     <g id="line2d_8">
      <g>
       <use style="stroke:#000000;stroke-width:0.5;" x="137.657804622" xlink:href="#m741efc42ff" y="29.3130913536"/>
      </g>
     </g>
     <g id="text_4">
      <!-- 0.5 -->
      <g transform="translate(129.035617122 171.285033646)scale(0.12 -0.12)">
       <use xlink:href="#BitstreamVeraSans-Roman-30"/>
       <use x="63.623046875" xlink:href="#BitstreamVeraSans-Roman-2e"/>
       <use x="95.41015625" xlink:href="#BitstreamVeraSans-Roman-35"/>
      </g>
     </g>
    </g>
    <g id="xtick_5">
     <g id="line2d_9">
      <g>
       <use style="stroke:#000000;stroke-width:0.5;" x="166.942763098" xlink:href="#m93b0483c22" y="158.166908646"/>
      </g>
     </g>
     <g id="line2d_10">
      <g>
       <use style="stroke:#000000;stroke-width:0.5;" x="166.942763098" xlink:href="#m741efc42ff" y="29.3130913536"/>
      </g>
     </g>
     <g id="text_5">
      <!-- 1.0 -->
      <g transform="translate(158.458388098 171.285033646)scale(0.12 -0.12)">
       <use xlink:href="#BitstreamVeraSans-Roman-31"/>
       <use x="63.623046875" xlink:href="#BitstreamVeraSans-Roman-2e"/>
       <use x="95.41015625" xlink:href="#BitstreamVeraSans-Roman-30"/>
      </g>
     </g>
    </g>
   </g>
   <g id="matplotlib.axis_2">
    <g id="ytick_1">
     <g id="line2d_11">
      <defs>
       <path d="
M0 0
L4 0" id="m728421d6d4" style="stroke:#000000;stroke-width:0.5;"/>
      </defs>
      <g>
       <use style="stroke:#000000;stroke-width:0.5;" x="43.9459375" xlink:href="#m728421d6d4" y="152.309916951"/>
      </g>
     </g>
     <g id="line2d_12">
      <defs>
       <path d="
M0 0
L-4 0" id="mcb0005524f" style="stroke:#000000;stroke-width:0.5;"/>
      </defs>
      <g>
       <use style="stroke:#000000;stroke-width:0.5;" x="172.799754793" xlink:href="#mcb0005524f" y="152.309916951"/>
      </g>
     </g>
     <g id="text_6">
      <!-- −1.0 -->
      <g transform="translate(12.8746875 155.621166951)scale(0.12 -0.12)">
       <use xlink:href="#BitstreamVeraSans-Roman-2212"/>
       <use x="83.7890625" xlink:href="#BitstreamVeraSans-Roman-31"/>
       <use x="147.412109375" xlink:href="#BitstreamVeraSans-Roman-2e"/>
       <use x="179.19921875" xlink:href="#BitstreamVeraSans-Roman-30"/>
      </g>
     </g>
    </g>
    <g id="ytick_2">
     <g id="line2d_13">
      <g>
       <use style="stroke:#000000;stroke-width:0.5;" x="43.9459375" xlink:href="#m728421d6d4" y="123.024958476"/>
      </g>
     </g>
     <g id="line2d_14">
      <g>
       <use style="stroke:#000000;stroke-width:0.5;" x="172.799754793" xlink:href="#mcb0005524f" y="123.024958476"/>
      </g>
     </g>
     <g id="text_7">
      <!-- −0.5 -->
      <g transform="translate(13.1259375 126.336208476)scale(0.12 -0.12)">
       <use xlink:href="#BitstreamVeraSans-Roman-2212"/>
       <use x="83.7890625" xlink:href="#BitstreamVeraSans-Roman-30"/>
       <use x="147.412109375" xlink:href="#BitstreamVeraSans-Roman-2e"/>
       <use x="179.19921875" xlink:href="#BitstreamVeraSans-Roman-35"/>
      </g>
     </g>
    </g>
    <g id="ytick_3">
     <g id="line2d_15">
      <g>
       <use style="stroke:#000000;stroke-width:0.5;" x="43.9459375" xlink:href="#m728421d6d4" y="93.74"/>
      </g>
     </g>
     <g id="line2d_16">
      <g>
       <use style="stroke:#000000;stroke-width:0.5;" x="172.799754793" xlink:href="#mcb0005524f" y="93.74"/>
      </g>
     </g>
     <g id="text_8">
      <!-- 0.0 -->
      <g transform="translate(22.4503125 97.05125)scale(0.12 -0.12)">
       <use xlink:href="#BitstreamVeraSans-Roman-30"/>
       <use x="63.623046875" xlink:href="#BitstreamVeraSans-Roman-2e"/>
       <use x="95.41015625" xlink:href="#BitstreamVeraSans-Roman-30"/>
      </g>
     </g>
    </g>
    <g id="ytick_4">
     <g id="line2d_17">
      <g>
       <use style="stroke:#000000;stroke-width:0.5;" x="43.9459375" xlink:href="#m728421d6d4" y="64.4550415243"/>
      </g>
     </g>
     <g id="line2d_18">
      <g>
       <use style="stroke:#000000;stroke-width:0.5;" x="172.799754793" xlink:href="#mcb0005524f" y="64.4550415243"/>
      </g>
     </g>
     <g id="text_9">
      <!-- 0.5 -->
      <g transform="translate(22.7015625 67.7662915243)scale(0.12 -0.12)">
       <use xlink:href="#BitstreamVeraSans-Roman-30"/>
       <use x="63.623046875" xlink:href="#BitstreamVeraSans-Roman-2e"/>
       <use x="95.41015625" xlink:href="#BitstreamVeraSans-Roman-35"/>
      </g>
     </g>
    </g>
    <g id="ytick_5">
     <g id="line2d_19">
      <g>
       <use style="stroke:#000000;stroke-width:0.5;" x="43.9459375" xlink:href="#m728421d6d4" y="35.1700830487"/>
      </g>
     </g>
     <g id="line2d_20">
      <g>
       <use style="stroke:#000000;stroke-width:0.5;" x="172.799754793" xlink:href="#mcb0005524f" y="35.1700830487"/>
      </g>
     </g>
     <g id="text_10">
      <!-- 1.0 -->
      <g transform="translate(22.9771875 38.4813330487)scale(0.12 -0.12)">
       <use xlink:href="#BitstreamVeraSans-Roman-31"/>
       <use x="63.623046875" xlink:href="#BitstreamVeraSans-Roman-2e"/>
       <use x="95.41015625" xlink:href="#BitstreamVeraSans-Roman-30"/>
      </g>
     </g>
    </g>
   </g>
   <g id="text_11">
    <!-- $k=2$, 8 vertices -->
    <defs>
     <path id="BitstreamVeraSans-Roman-20"/>
     <path d="
M5.32812 1.8125
Q5.32812 2.39062 5.42188 2.6875
L19.9219 60.5
Q20.3125 62.2031 20.4062 63.1875
Q20.4062 64.7969 13.9219 64.7969
Q12.8906 64.7969 12.8906 66.1094
Q12.9375 66.3594 13.1094 66.9844
Q13.2812 67.625 13.5469 67.9688
Q13.8125 68.3125 14.3125 68.3125
L27.7812 69.3906
L28.0781 69.3906
Q28.0781 69.2812 28.4219 69.1094
Q28.7656 68.9531 28.8125 68.8906
Q29 68.4062 29 68.1094
L18.5 26.3125
Q22.125 27.8281 27.6094 33.5156
Q33.1094 39.2031 36.2031 41.6875
Q39.3125 44.1875 44 44.1875
Q46.7812 44.1875 48.7344 42.2812
Q50.6875 40.375 50.6875 37.5938
Q50.6875 35.8438 49.9531 34.3438
Q49.2188 32.8594 47.8906 31.9219
Q46.5781 31 44.8281 31
Q43.2188 31 42.1094 32
Q41.0156 33.0156 41.0156 34.625
Q41.0156 37.0156 42.7031 38.6406
Q44.3906 40.2812 46.7812 40.2812
Q45.7969 41.6094 43.7969 41.6094
Q40.8281 41.6094 38.0625 39.8906
Q35.2969 38.1875 32.0938 34.9844
Q28.9062 31.7812 26.2656 29.125
Q23.6406 26.4688 21.3906 25.0938
Q27.2969 24.4219 31.6406 22
Q35.9844 19.5781 35.9844 14.5938
Q35.9844 13.5781 35.5938 12.0156
Q34.7188 8.25 34.7188 6
Q34.7188 1.51562 37.7969 1.51562
Q41.4062 1.51562 43.2812 5.46875
Q45.1719 9.42188 46.3906 14.7031
Q46.5781 15.2812 47.2188 15.2812
L48.3906 15.2812
Q48.7812 15.2812 49.0469 15.0312
Q49.3125 14.7969 49.3125 14.4062
Q49.3125 14.3125 49.2188 14.1094
Q45.4531 -1.125 37.5938 -1.125
Q34.7656 -1.125 32.5938 0.1875
Q30.4219 1.51562 29.25 3.78125
Q28.0781 6.0625 28.0781 8.89062
Q28.0781 10.5 28.5156 12.2031
Q28.8125 13.375 28.8125 14.4062
Q28.8125 18.2656 25.3906 20.2656
Q21.9688 22.2656 17.5781 22.7031
L12.5 2.29688
Q12.1094 0.78125 10.9844 -0.171875
Q9.85938 -1.125 8.40625 -1.125
Q7.125 -1.125 6.21875 -0.265625
Q5.32812 0.59375 5.32812 1.8125" id="Cmmi10-6b"/>
     <path d="
M4.98438 0
L4.98438 2.6875
Q4.98438 2.9375 5.17188 3.21875
L20.7031 20.4062
Q24.2188 24.2188 26.4062 26.7969
Q28.6094 29.3906 30.75 32.7656
Q32.9062 36.1406 34.1562 39.625
Q35.4062 43.1094 35.4062 47.0156
Q35.4062 51.125 33.8906 54.8594
Q32.375 58.5938 29.375 60.8438
Q26.375 63.0938 22.125 63.0938
Q17.7812 63.0938 14.3125 60.4688
Q10.8438 57.8594 9.42188 53.7188
Q9.8125 53.8125 10.5 53.8125
Q12.75 53.8125 14.3281 52.2969
Q15.9219 50.7812 15.9219 48.3906
Q15.9219 46.0938 14.3281 44.5
Q12.75 42.9219 10.5 42.9219
Q8.15625 42.9219 6.5625 44.5469
Q4.98438 46.1875 4.98438 48.3906
Q4.98438 52.1562 6.39062 55.4375
Q7.8125 58.7344 10.4688 61.2969
Q13.1406 63.875 16.4844 65.2344
Q19.8281 66.6094 23.5781 66.6094
Q29.2969 66.6094 34.2188 64.1875
Q39.1562 61.7656 42.0312 57.3438
Q44.9219 52.9375 44.9219 47.0156
Q44.9219 42.6719 43.0156 38.7656
Q41.1094 34.8594 38.125 31.6562
Q35.1562 28.4688 30.5156 24.4062
Q25.875 20.3594 24.4219 19
L13.0938 8.10938
L22.7031 8.10938
Q29.7812 8.10938 34.5469 8.21875
Q39.3125 8.34375 39.5938 8.59375
Q40.7656 9.85938 42 17.8281
L44.9219 17.8281
L42.0938 0
z
" id="Cmr10-32"/>
     <path d="
M31.7812 34.625
Q24.75 34.625 20.7188 30.8594
Q16.7031 27.0938 16.7031 20.5156
Q16.7031 13.9219 20.7188 10.1562
Q24.75 6.39062 31.7812 6.39062
Q38.8125 6.39062 42.8594 10.1719
Q46.9219 13.9688 46.9219 20.5156
Q46.9219 27.0938 42.8906 30.8594
Q38.875 34.625 31.7812 34.625
M21.9219 38.8125
Q15.5781 40.375 12.0312 44.7188
Q8.5 49.0781 8.5 55.3281
Q8.5 64.0625 14.7188 69.1406
Q20.9531 74.2188 31.7812 74.2188
Q42.6719 74.2188 48.875 69.1406
Q55.0781 64.0625 55.0781 55.3281
Q55.0781 49.0781 51.5312 44.7188
Q48 40.375 41.7031 38.8125
Q48.8281 37.1562 52.7969 32.3125
Q56.7812 27.4844 56.7812 20.5156
Q56.7812 9.90625 50.3125 4.23438
Q43.8438 -1.42188 31.7812 -1.42188
Q19.7344 -1.42188 13.25 4.23438
Q6.78125 9.90625 6.78125 20.5156
Q6.78125 27.4844 10.7812 32.3125
Q14.7969 37.1562 21.9219 38.8125
M18.3125 54.3906
Q18.3125 48.7344 21.8438 45.5625
Q25.3906 42.3906 31.7812 42.3906
Q38.1406 42.3906 41.7188 45.5625
Q45.3125 48.7344 45.3125 54.3906
Q45.3125 60.0625 41.7188 63.2344
Q38.1406 66.4062 31.7812 66.4062
Q25.3906 66.4062 21.8438 63.2344
Q18.3125 60.0625 18.3125 54.3906" id="BitstreamVeraSans-Roman-38"/>
     <path d="
M56.2031 29.5938
L56.2031 25.2031
L14.8906 25.2031
Q15.4844 15.9219 20.4844 11.0625
Q25.4844 6.20312 34.4219 6.20312
Q39.5938 6.20312 44.4531 7.46875
Q49.3125 8.73438 54.1094 11.2812
L54.1094 2.78125
Q49.2656 0.734375 44.1875 -0.34375
Q39.1094 -1.42188 33.8906 -1.42188
Q20.7969 -1.42188 13.1562 6.1875
Q5.51562 13.8125 5.51562 26.8125
Q5.51562 40.2344 12.7656 48.1094
Q20.0156 56 32.3281 56
Q43.3594 56 49.7812 48.8906
Q56.2031 41.7969 56.2031 29.5938
M47.2188 32.2344
Q47.125 39.5938 43.0938 43.9844
Q39.0625 48.3906 32.4219 48.3906
Q24.9062 48.3906 20.3906 44.1406
Q15.875 39.8906 15.1875 32.1719
z
" id="BitstreamVeraSans-Roman-65"/>
     <path d="
M11.7188 12.4062
L22.0156 12.4062
L22.0156 4
L14.0156 -11.625
L7.71875 -11.625
L11.7188 4
z
" id="BitstreamVeraSans-Roman-2c"/>
     <path d="
M9.42188 54.6875
L18.4062 54.6875
L18.4062 0
L9.42188 0
z

M9.42188 75.9844
L18.4062 75.9844
L18.4062 64.5938
L9.42188 64.5938
z
" id="BitstreamVeraSans-Roman-69"/>
     <path d="
M7.51562 13.2812
Q6.6875 13.2812 6.14062 13.9062
Q5.60938 14.5469 5.60938 15.2812
Q5.60938 16.1094 6.14062 16.6875
Q6.6875 17.2812 7.51562 17.2812
L70.3125 17.2812
Q71.0469 17.2812 71.5781 16.6875
Q72.125 16.1094 72.125 15.2812
Q72.125 14.5469 71.5781 13.9062
Q71.0469 13.2812 70.3125 13.2812
z

M7.51562 32.7188
Q6.6875 32.7188 6.14062 33.2969
Q5.60938 33.8906 5.60938 34.7188
Q5.60938 35.4531 6.14062 36.0781
Q6.6875 36.7188 7.51562 36.7188
L70.3125 36.7188
Q71.0469 36.7188 71.5781 36.0781
Q72.125 35.4531 72.125 34.7188
Q72.125 33.8906 71.5781 33.2969
Q71.0469 32.7188 70.3125 32.7188
z
" id="Cmr10-3d"/>
     <path d="
M2.98438 54.6875
L12.5 54.6875
L29.5938 8.79688
L46.6875 54.6875
L56.2031 54.6875
L35.6875 0
L23.4844 0
z
" id="BitstreamVeraSans-Roman-76"/>
     <path d="
M18.3125 70.2188
L18.3125 54.6875
L36.8125 54.6875
L36.8125 47.7031
L18.3125 47.7031
L18.3125 18.0156
Q18.3125 11.3281 20.1406 9.42188
Q21.9688 7.51562 27.5938 7.51562
L36.8125 7.51562
L36.8125 0
L27.5938 0
Q17.1875 0 13.2344 3.875
Q9.28125 7.76562 9.28125 18.0156
L9.28125 47.7031
L2.6875 47.7031
L2.6875 54.6875
L9.28125 54.6875
L9.28125 70.2188
z
" id="BitstreamVeraSans-Roman-74"/>
     <path d="
M41.1094 46.2969
Q39.5938 47.1719 37.8125 47.5781
Q36.0312 48 33.8906 48
Q26.2656 48 22.1875 43.0469
Q18.1094 38.0938 18.1094 28.8125
L18.1094 0
L9.07812 0
L9.07812 54.6875
L18.1094 54.6875
L18.1094 46.1875
Q20.9531 51.1719 25.4844 53.5781
Q30.0312 56 36.5312 56
Q37.4531 56 38.5781 55.875
Q39.7031 55.7656 41.0625 55.5156
z
" id="BitstreamVeraSans-Roman-72"/>
     <path d="
M44.2812 53.0781
L44.2812 44.5781
Q40.4844 46.5312 36.375 47.5
Q32.2812 48.4844 27.875 48.4844
Q21.1875 48.4844 17.8438 46.4375
Q14.5 44.3906 14.5 40.2812
Q14.5 37.1562 16.8906 35.375
Q19.2812 33.5938 26.5156 31.9844
L29.5938 31.2969
Q39.1562 29.25 43.1875 25.5156
Q47.2188 21.7812 47.2188 15.0938
Q47.2188 7.46875 41.1875 3.01562
Q35.1562 -1.42188 24.6094 -1.42188
Q20.2188 -1.42188 15.4531 -0.5625
Q10.6875 0.296875 5.42188 2
L5.42188 11.2812
Q10.4062 8.6875 15.2344 7.39062
Q20.0625 6.10938 24.8125 6.10938
Q31.1562 6.10938 34.5625 8.28125
Q37.9844 10.4531 37.9844 14.4062
Q37.9844 18.0625 35.5156 20.0156
Q33.0625 21.9688 24.7031 23.7812
L21.5781 24.5156
Q13.2344 26.2656 9.51562 29.9062
Q5.8125 33.5469 5.8125 39.8906
Q5.8125 47.6094 11.2812 51.7969
Q16.75 56 26.8125 56
Q31.7812 56 36.1719 55.2656
Q40.5781 54.5469 44.2812 53.0781" id="BitstreamVeraSans-Roman-73"/>
     <path d="
M48.7812 52.5938
L48.7812 44.1875
Q44.9688 46.2969 41.1406 47.3438
Q37.3125 48.3906 33.4062 48.3906
Q24.6562 48.3906 19.8125 42.8438
Q14.9844 37.3125 14.9844 27.2969
Q14.9844 17.2812 19.8125 11.7344
Q24.6562 6.20312 33.4062 6.20312
Q37.3125 6.20312 41.1406 7.25
Q44.9688 8.29688 48.7812 10.4062
L48.7812 2.09375
Q45.0156 0.34375 40.9844 -0.53125
Q36.9688 -1.42188 32.4219 -1.42188
Q20.0625 -1.42188 12.7812 6.34375
Q5.51562 14.1094 5.51562 27.2969
Q5.51562 40.6719 12.8594 48.3281
Q20.2188 56 33.0156 56
Q37.1562 56 41.1094 55.1406
Q45.0625 54.2969 48.7812 52.5938" id="BitstreamVeraSans-Roman-63"/>
    </defs>
    <g transform="translate(53.5808461464 24.3130913536)scale(0.144 -0.144)">
     <use transform="translate(0.0 0.015625)" xlink:href="#Cmmi10-6b"/>
     <use transform="translate(69.560546875 0.015625)" xlink:href="#Cmr10-3d"/>
     <use transform="translate(153.619140625 0.015625)" xlink:href="#Cmr10-32"/>
     <use transform="translate(203.619140625 0.015625)" xlink:href="#BitstreamVeraSans-Roman-2c"/>
     <use transform="translate(235.40625 0.015625)" xlink:href="#BitstreamVeraSans-Roman-20"/>
     <use transform="translate(267.193359375 0.015625)" xlink:href="#BitstreamVeraSans-Roman-38"/>
     <use transform="translate(330.81640625 0.015625)" xlink:href="#BitstreamVeraSans-Roman-20"/>
     <use transform="translate(362.603515625 0.015625)" xlink:href="#BitstreamVeraSans-Roman-76"/>
     <use transform="translate(421.783203125 0.015625)" xlink:href="#BitstreamVeraSans-Roman-65"/>
     <use transform="translate(483.306640625 0.015625)" xlink:href="#BitstreamVeraSans-Roman-72"/>
     <use transform="translate(524.419921875 0.015625)" xlink:href="#BitstreamVeraSans-Roman-74"/>
     <use transform="translate(563.62890625 0.015625)" xlink:href="#BitstreamVeraSans-Roman-69"/>
     <use transform="translate(591.412109375 0.015625)" xlink:href="#BitstreamVeraSans-Roman-63"/>
     <use transform="translate(646.392578125 0.015625)" xlink:href="#BitstreamVeraSans-Roman-65"/>
     <use transform="translate(707.916015625 0.015625)" xlink:href="#BitstreamVeraSans-Roman-73"/>
    </g>
   </g>
  </g>
  <g id="axes_2">
   <g id="patch_7">
    <path d="
M219.623 158.167
L348.477 158.167
L348.477 29.3131
L219.623 29.3131
z
" style="fill:#ffffff;"/>
   </g>
   <g id="PolyCollection_2">
    <defs>
     <path d="
M284.05 -207.407
L272.569 -208.538
L261.528 -211.887
L251.353 -217.325
L242.435 -224.644
L235.116 -233.563
L229.677 -243.738
L226.328 -254.778
L225.197 -266.26
L226.328 -277.742
L229.677 -288.782
L235.116 -298.957
L242.435 -307.876
L251.353 -315.195
L261.528 -320.633
L272.569 -323.982
L284.05 -325.113
L295.532 -323.982
L306.573 -320.633
L316.747 -315.195
L325.666 -307.876
L332.985 -298.957
L338.424 -288.782
L341.773 -277.742
L342.904 -266.26
L341.773 -254.778
L338.424 -243.738
L332.985 -233.563
L325.666 -224.644
L316.747 -217.325
L306.573 -211.887
L295.532 -208.538
z
" id="m50397de136" style="stroke:#000000;"/>
    </defs>
    <g clip-path="url(#p40af87b094)">
     <use style="fill:#bfbfbf;stroke:#000000;" x="0.0" xlink:href="#m50397de136" y="360.0"/>
    </g>
   </g>
   <g id="patch_8">
    <path d="
M219.623 29.3131
L348.477 29.3131" style="fill:none;stroke:#000000;stroke-linecap:square;stroke-linejoin:miter;"/>
   </g>
   <g id="patch_9">
    <path d="
M348.477 158.167
L348.477 29.3131" style="fill:none;stroke:#000000;stroke-linecap:square;stroke-linejoin:miter;"/>
   </g>
   <g id="patch_10">
    <path d="
M219.623 158.167
L348.477 158.167" style="fill:none;stroke:#000000;stroke-linecap:square;stroke-linejoin:miter;"/>
   </g>
   <g id="patch_11">
    <path d="
M219.623 158.167
L219.623 29.3131" style="fill:none;stroke:#000000;stroke-linecap:square;stroke-linejoin:miter;"/>
   </g>
   <g id="matplotlib.axis_3">
    <g id="xtick_6">
     <g id="line2d_21">
      <g>
       <use style="stroke:#000000;stroke-width:0.5;" x="225.480420452" xlink:href="#m93b0483c22" y="158.166908646"/>
      </g>
     </g>
     <g id="line2d_22">
      <g>
       <use style="stroke:#000000;stroke-width:0.5;" x="225.480420452" xlink:href="#m741efc42ff" y="29.3130913536"/>
      </g>
     </g>
     <g id="text_12">
      <!-- −1.0 -->
      <g transform="translate(211.944795452 171.285033646)scale(0.12 -0.12)">
       <use xlink:href="#BitstreamVeraSans-Roman-2212"/>
       <use x="83.7890625" xlink:href="#BitstreamVeraSans-Roman-31"/>
       <use x="147.412109375" xlink:href="#BitstreamVeraSans-Roman-2e"/>
       <use x="179.19921875" xlink:href="#BitstreamVeraSans-Roman-30"/>
      </g>
     </g>
    </g>
    <g id="xtick_7">
     <g id="line2d_23">
      <g>
       <use style="stroke:#000000;stroke-width:0.5;" x="254.765378928" xlink:href="#m93b0483c22" y="158.166908646"/>
      </g>
     </g>
     <g id="line2d_24">
      <g>
       <use style="stroke:#000000;stroke-width:0.5;" x="254.765378928" xlink:href="#m741efc42ff" y="29.3130913536"/>
      </g>
     </g>
     <g id="text_13">
      <!-- −0.5 -->
      <g transform="translate(241.355378928 171.285033646)scale(0.12 -0.12)">
       <use xlink:href="#BitstreamVeraSans-Roman-2212"/>
       <use x="83.7890625" xlink:href="#BitstreamVeraSans-Roman-30"/>
       <use x="147.412109375" xlink:href="#BitstreamVeraSans-Roman-2e"/>
       <use x="179.19921875" xlink:href="#BitstreamVeraSans-Roman-35"/>
      </g>
     </g>
    </g>
    <g id="xtick_8">
     <g id="line2d_25">
      <g>
       <use style="stroke:#000000;stroke-width:0.5;" x="284.050337403" xlink:href="#m93b0483c22" y="158.166908646"/>
      </g>
     </g>
     <g id="line2d_26">
      <g>
       <use style="stroke:#000000;stroke-width:0.5;" x="284.050337403" xlink:href="#m741efc42ff" y="29.3130913536"/>
      </g>
     </g>
     <g id="text_14">
      <!-- 0.0 -->
      <g transform="translate(275.302524903 171.285033646)scale(0.12 -0.12)">
       <use xlink:href="#BitstreamVeraSans-Roman-30"/>
       <use x="63.623046875" xlink:href="#BitstreamVeraSans-Roman-2e"/>
       <use x="95.41015625" xlink:href="#BitstreamVeraSans-Roman-30"/>
      </g>
     </g>
    </g>
    <g id="xtick_9">
     <g id="line2d_27">
      <g>
       <use style="stroke:#000000;stroke-width:0.5;" x="313.335295879" xlink:href="#m93b0483c22" y="158.166908646"/>
      </g>
     </g>
     <g id="line2d_28">
      <g>
       <use style="stroke:#000000;stroke-width:0.5;" x="313.335295879" xlink:href="#m741efc42ff" y="29.3130913536"/>
      </g>
     </g>
     <g id="text_15">
      <!-- 0.5 -->
      <g transform="translate(304.713108379 171.285033646)scale(0.12 -0.12)">
       <use xlink:href="#BitstreamVeraSans-Roman-30"/>
       <use x="63.623046875" xlink:href="#BitstreamVeraSans-Roman-2e"/>
       <use x="95.41015625" xlink:href="#BitstreamVeraSans-Roman-35"/>
      </g>
     </g>
    </g>
    <g id="xtick_10">
     <g id="line2d_29">
      <g>
       <use style="stroke:#000000;stroke-width:0.5;" x="342.620254355" xlink:href="#m93b0483c22" y="158.166908646"/>
      </g>
     </g>
     <g id="line2d_30">
      <g>
       <use style="stroke:#000000;stroke-width:0.5;" x="342.620254355" xlink:href="#m741efc42ff" y="29.3130913536"/>
      </g>
     </g>
     <g id="text_16">
      <!-- 1.0 -->
      <g transform="translate(334.135879355 171.285033646)scale(0.12 -0.12)">
       <use xlink:href="#BitstreamVeraSans-Roman-31"/>
       <use x="63.623046875" xlink:href="#BitstreamVeraSans-Roman-2e"/>
       <use x="95.41015625" xlink:href="#BitstreamVeraSans-Roman-30"/>
      </g>
     </g>
    </g>
   </g>
   <g id="matplotlib.axis_4">
    <g id="ytick_6">
     <g id="line2d_31">
      <g>
       <use style="stroke:#000000;stroke-width:0.5;" x="219.623428757" xlink:href="#m728421d6d4" y="152.309916951"/>
      </g>
     </g>
     <g id="line2d_32">
      <g>
       <use style="stroke:#000000;stroke-width:0.5;" x="348.47724605" xlink:href="#mcb0005524f" y="152.309916951"/>
      </g>
     </g>
     <g id="text_17">
      <!-- −1.0 -->
      <g transform="translate(188.552178757 155.621166951)scale(0.12 -0.12)">
       <use xlink:href="#BitstreamVeraSans-Roman-2212"/>
       <use x="83.7890625" xlink:href="#BitstreamVeraSans-Roman-31"/>
       <use x="147.412109375" xlink:href="#BitstreamVeraSans-Roman-2e"/>
       <use x="179.19921875" xlink:href="#BitstreamVeraSans-Roman-30"/>
      </g>
     </g>
    </g>
    <g id="ytick_7">
     <g id="line2d_33">
      <g>
       <use style="stroke:#000000;stroke-width:0.5;" x="219.623428757" xlink:href="#m728421d6d4" y="123.024958476"/>
      </g>
     </g>
     <g id="line2d_34">
      <g>
       <use style="stroke:#000000;stroke-width:0.5;" x="348.47724605" xlink:href="#mcb0005524f" y="123.024958476"/>
      </g>
     </g>
     <g id="text_18">
      <!-- −0.5 -->
      <g transform="translate(188.803428757 126.336208476)scale(0.12 -0.12)">
       <use xlink:href="#BitstreamVeraSans-Roman-2212"/>
       <use x="83.7890625" xlink:href="#BitstreamVeraSans-Roman-30"/>
       <use x="147.412109375" xlink:href="#BitstreamVeraSans-Roman-2e"/>
       <use x="179.19921875" xlink:href="#BitstreamVeraSans-Roman-35"/>
      </g>
     </g>
    </g>
    <g id="ytick_8">
     <g id="line2d_35">
      <g>
       <use style="stroke:#000000;stroke-width:0.5;" x="219.623428757" xlink:href="#m728421d6d4" y="93.74"/>
      </g>
     </g>
     <g id="line2d_36">
      <g>
       <use style="stroke:#000000;stroke-width:0.5;" x="348.47724605" xlink:href="#mcb0005524f" y="93.74"/>
      </g>
     </g>
     <g id="text_19">
      <!-- 0.0 -->
      <g transform="translate(198.127803757 97.05125)scale(0.12 -0.12)">
       <use xlink:href="#BitstreamVeraSans-Roman-30"/>
       <use x="63.623046875" xlink:href="#BitstreamVeraSans-Roman-2e"/>
       <use x="95.41015625" xlink:href="#BitstreamVeraSans-Roman-30"/>
      </g>
     </g>
    </g>
    <g id="ytick_9">
     <g id="line2d_37">
      <g>
       <use style="stroke:#000000;stroke-width:0.5;" x="219.623428757" xlink:href="#m728421d6d4" y="64.4550415243"/>
      </g>
     </g>
     <g id="line2d_38">
      <g>
       <use style="stroke:#000000;stroke-width:0.5;" x="348.47724605" xlink:href="#mcb0005524f" y="64.4550415243"/>
      </g>
     </g>
     <g id="text_20">
      <!-- 0.5 -->
      <g transform="translate(198.379053757 67.7662915243)scale(0.12 -0.12)">
       <use xlink:href="#BitstreamVeraSans-Roman-30"/>
       <use x="63.623046875" xlink:href="#BitstreamVeraSans-Roman-2e"/>
       <use x="95.41015625" xlink:href="#BitstreamVeraSans-Roman-35"/>
      </g>
     </g>
    </g>
    <g id="ytick_10">
     <g id="line2d_39">
      <g>
       <use style="stroke:#000000;stroke-width:0.5;" x="219.623428757" xlink:href="#m728421d6d4" y="35.1700830487"/>
      </g>
     </g>
     <g id="line2d_40">
      <g>
       <use style="stroke:#000000;stroke-width:0.5;" x="348.47724605" xlink:href="#mcb0005524f" y="35.1700830487"/>
      </g>
     </g>
     <g id="text_21">
      <!-- 1.0 -->
      <g transform="translate(198.654678757 38.4813330487)scale(0.12 -0.12)">
       <use xlink:href="#BitstreamVeraSans-Roman-31"/>
       <use x="63.623046875" xlink:href="#BitstreamVeraSans-Roman-2e"/>
       <use x="95.41015625" xlink:href="#BitstreamVeraSans-Roman-30"/>
      </g>
     </g>
    </g>
   </g>
   <g id="text_22">
    <!-- $k=4$, 32 vertices -->
    <defs>
     <path d="
M19.1875 8.29688
L53.6094 8.29688
L53.6094 0
L7.32812 0
L7.32812 8.29688
Q12.9375 14.1094 22.625 23.8906
Q32.3281 33.6875 34.8125 36.5312
Q39.5469 41.8438 41.4219 45.5312
Q43.3125 49.2188 43.3125 52.7812
Q43.3125 58.5938 39.2344 62.25
Q35.1562 65.9219 28.6094 65.9219
Q23.9688 65.9219 18.8125 64.3125
Q13.6719 62.7031 7.8125 59.4219
L7.8125 69.3906
Q13.7656 71.7812 18.9375 73
Q24.125 74.2188 28.4219 74.2188
Q39.75 74.2188 46.4844 68.5469
Q53.2188 62.8906 53.2188 53.4219
Q53.2188 48.9219 51.5312 44.8906
Q49.8594 40.875 45.4062 35.4062
Q44.1875 33.9844 37.6406 27.2188
Q31.1094 20.4531 19.1875 8.29688" id="BitstreamVeraSans-Roman-32"/>
     <path d="
M40.5781 39.3125
Q47.6562 37.7969 51.625 33
Q55.6094 28.2188 55.6094 21.1875
Q55.6094 10.4062 48.1875 4.48438
Q40.7656 -1.42188 27.0938 -1.42188
Q22.5156 -1.42188 17.6562 -0.515625
Q12.7969 0.390625 7.625 2.20312
L7.625 11.7188
Q11.7188 9.32812 16.5938 8.10938
Q21.4844 6.89062 26.8125 6.89062
Q36.0781 6.89062 40.9375 10.5469
Q45.7969 14.2031 45.7969 21.1875
Q45.7969 27.6406 41.2812 31.2656
Q36.7656 34.9062 28.7188 34.9062
L20.2188 34.9062
L20.2188 43.0156
L29.1094 43.0156
Q36.375 43.0156 40.2344 45.9219
Q44.0938 48.8281 44.0938 54.2969
Q44.0938 59.9062 40.1094 62.9062
Q36.1406 65.9219 28.7188 65.9219
Q24.6562 65.9219 20.0156 65.0312
Q15.375 64.1562 9.8125 62.3125
L9.8125 71.0938
Q15.4375 72.6562 20.3438 73.4375
Q25.25 74.2188 29.5938 74.2188
Q40.8281 74.2188 47.3594 69.1094
Q53.9062 64.0156 53.9062 55.3281
Q53.9062 49.2656 50.4375 45.0938
Q46.9688 40.9219 40.5781 39.3125" id="BitstreamVeraSans-Roman-33"/>
     <path d="
M2.78125 16.5
L2.78125 20.0156
L33.6875 66.1094
Q34.0312 66.6094 34.7188 66.6094
L36.1875 66.6094
Q37.3125 66.6094 37.3125 65.4844
L37.3125 20.0156
L47.125 20.0156
L47.125 16.5
L37.3125 16.5
L37.3125 6.6875
Q37.3125 4.64062 40.2344 4.07812
Q43.1719 3.51562 47.0156 3.51562
L47.0156 0
L19.4844 0
L19.4844 3.51562
Q23.3438 3.51562 26.2656 4.07812
Q29.2031 4.64062 29.2031 6.6875
L29.2031 16.5
z

M6.10938 20.0156
L29.7812 20.0156
L29.7812 55.4219
z
" id="Cmr10-34"/>
    </defs>
    <g transform="translate(224.722337403 24.3130913536)scale(0.144 -0.144)">
     <use transform="translate(0.0 0.015625)" xlink:href="#Cmmi10-6b"/>
     <use transform="translate(69.560546875 0.015625)" xlink:href="#Cmr10-3d"/>
     <use transform="translate(153.619140625 0.015625)" xlink:href="#Cmr10-34"/>
     <use transform="translate(203.619140625 0.015625)" xlink:href="#BitstreamVeraSans-Roman-2c"/>
     <use transform="translate(235.40625 0.015625)" xlink:href="#BitstreamVeraSans-Roman-20"/>
     <use transform="translate(267.193359375 0.015625)" xlink:href="#BitstreamVeraSans-Roman-33"/>
     <use transform="translate(330.81640625 0.015625)" xlink:href="#BitstreamVeraSans-Roman-32"/>
     <use transform="translate(394.439453125 0.015625)" xlink:href="#BitstreamVeraSans-Roman-20"/>
     <use transform="translate(426.2265625 0.015625)" xlink:href="#BitstreamVeraSans-Roman-76"/>
     <use transform="translate(485.40625 0.015625)" xlink:href="#BitstreamVeraSans-Roman-65"/>
     <use transform="translate(546.9296875 0.015625)" xlink:href="#BitstreamVeraSans-Roman-72"/>
     <use transform="translate(588.04296875 0.015625)" xlink:href="#BitstreamVeraSans-Roman-74"/>
     <use transform="translate(627.251953125 0.015625)" xlink:href="#BitstreamVeraSans-Roman-69"/>
     <use transform="translate(655.03515625 0.015625)" xlink:href="#BitstreamVeraSans-Roman-63"/>
     <use transform="translate(710.015625 0.015625)" xlink:href="#BitstreamVeraSans-Roman-65"/>
     <use transform="translate(771.5390625 0.015625)" xlink:href="#BitstreamVeraSans-Roman-73"/>
    </g>
   </g>
  </g>
  <g id="axes_3">
   <g id="patch_12">
    <path d="
M395.301 158.167
L524.155 158.167
L524.155 29.3131
L395.301 29.3131
z
" style="fill:#ffffff;"/>
   </g>
   <g id="PolyCollection_3">
    <defs>
     <path d="
M459.728 -207.672
L456.853 -207.743
L453.985 -207.955
L451.131 -208.307
L448.298 -208.798
L445.492 -209.428
L442.721 -210.195
L439.99 -211.097
L437.307 -212.132
L434.678 -213.297
L432.11 -214.59
L429.608 -216.008
L427.178 -217.546
L424.827 -219.202
L422.56 -220.971
L420.383 -222.849
L418.3 -224.832
L416.317 -226.915
L414.439 -229.092
L412.67 -231.359
L411.014 -233.71
L409.476 -236.14
L408.058 -238.642
L406.765 -241.211
L405.6 -243.84
L404.565 -246.522
L403.663 -249.253
L402.896 -252.024
L402.266 -254.83
L401.774 -257.663
L401.422 -260.517
L401.211 -263.385
L401.14 -266.26
L401.211 -269.135
L401.422 -272.003
L401.774 -274.857
L402.266 -277.69
L402.896 -280.496
L403.663 -283.267
L404.565 -285.998
L405.6 -288.68
L406.765 -291.309
L408.058 -293.878
L409.476 -296.38
L411.014 -298.81
L412.67 -301.161
L414.439 -303.428
L416.317 -305.605
L418.3 -307.688
L420.383 -309.671
L422.56 -311.549
L424.827 -313.318
L427.178 -314.974
L429.608 -316.512
L432.11 -317.93
L434.678 -319.223
L437.307 -320.388
L439.99 -321.423
L442.721 -322.325
L445.492 -323.092
L448.298 -323.722
L451.131 -324.213
L453.985 -324.565
L456.853 -324.777
L459.728 -324.848
L462.603 -324.777
L465.47 -324.565
L468.324 -324.213
L471.158 -323.722
L473.963 -323.092
L476.735 -322.325
L479.465 -321.423
L482.148 -320.388
L484.777 -319.223
L487.346 -317.93
L489.848 -316.512
L492.277 -314.974
L494.628 -313.318
L496.895 -311.549
L499.073 -309.671
L501.155 -307.688
L503.138 -305.605
L505.017 -303.428
L506.786 -301.161
L508.442 -298.81
L509.98 -296.38
L511.397 -293.878
L512.69 -291.309
L513.856 -288.68
L514.891 -285.998
L515.793 -283.267
L516.56 -280.496
L517.19 -277.69
L517.681 -274.857
L518.033 -272.003
L518.245 -269.135
L518.315 -266.26
L518.245 -263.385
L518.033 -260.517
L517.681 -257.663
L517.19 -254.83
L516.56 -252.024
L515.793 -249.253
L514.891 -246.522
L513.856 -243.84
L512.69 -241.211
L511.397 -238.642
L509.98 -236.14
L508.442 -233.71
L506.786 -231.359
L505.017 -229.092
L503.138 -226.915
L501.155 -224.832
L499.073 -222.849
L496.895 -220.971
L494.628 -219.202
L492.277 -217.546
L489.848 -216.008
L487.346 -214.59
L484.777 -213.297
L482.148 -212.132
L479.465 -211.097
L476.735 -210.195
L473.963 -209.428
L471.158 -208.798
L468.324 -208.307
L465.47 -207.955
L462.603 -207.743
z
" id="m3af9289f14" style="stroke:#000000;"/>
    </defs>
    <g clip-path="url(#p7cd1a8e5d9)">
     <use style="fill:#bfbfbf;stroke:#000000;" x="0.0" xlink:href="#m3af9289f14" y="360.0"/>
    </g>
   </g>
   <g id="patch_13">
    <path d="
M395.301 29.3131
L524.155 29.3131" style="fill:none;stroke:#000000;stroke-linecap:square;stroke-linejoin:miter;"/>
   </g>
   <g id="patch_14">
    <path d="
M524.155 158.167
L524.155 29.3131" style="fill:none;stroke:#000000;stroke-linecap:square;stroke-linejoin:miter;"/>
   </g>
   <g id="patch_15">
    <path d="
M395.301 158.167
L524.155 158.167" style="fill:none;stroke:#000000;stroke-linecap:square;stroke-linejoin:miter;"/>
   </g>
   <g id="patch_16">
    <path d="
M395.301 158.167
L395.301 29.3131" style="fill:none;stroke:#000000;stroke-linecap:square;stroke-linejoin:miter;"/>
   </g>
   <g id="matplotlib.axis_5">
    <g id="xtick_11">
     <g id="line2d_41">
      <g>
       <use style="stroke:#000000;stroke-width:0.5;" x="401.157911709" xlink:href="#m93b0483c22" y="158.166908646"/>
      </g>
     </g>
     <g id="line2d_42">
      <g>
       <use style="stroke:#000000;stroke-width:0.5;" x="401.157911709" xlink:href="#m741efc42ff" y="29.3130913536"/>
      </g>
     </g>
     <g id="text_23">
      <!-- −1.0 -->
      <g transform="translate(387.622286709 171.285033646)scale(0.12 -0.12)">
       <use xlink:href="#BitstreamVeraSans-Roman-2212"/>
       <use x="83.7890625" xlink:href="#BitstreamVeraSans-Roman-31"/>
       <use x="147.412109375" xlink:href="#BitstreamVeraSans-Roman-2e"/>
       <use x="179.19921875" xlink:href="#BitstreamVeraSans-Roman-30"/>
      </g>
     </g>
    </g>
    <g id="xtick_12">
     <g id="line2d_43">
      <g>
       <use style="stroke:#000000;stroke-width:0.5;" x="430.442870184" xlink:href="#m93b0483c22" y="158.166908646"/>
      </g>
     </g>
     <g id="line2d_44">
      <g>
       <use style="stroke:#000000;stroke-width:0.5;" x="430.442870184" xlink:href="#m741efc42ff" y="29.3130913536"/>
      </g>
     </g>
     <g id="text_24">
      <!-- −0.5 -->
      <g transform="translate(417.032870184 171.285033646)scale(0.12 -0.12)">
       <use xlink:href="#BitstreamVeraSans-Roman-2212"/>
       <use x="83.7890625" xlink:href="#BitstreamVeraSans-Roman-30"/>
       <use x="147.412109375" xlink:href="#BitstreamVeraSans-Roman-2e"/>
       <use x="179.19921875" xlink:href="#BitstreamVeraSans-Roman-35"/>
      </g>
     </g>
    </g>
    <g id="xtick_13">
     <g id="line2d_45">
      <g>
       <use style="stroke:#000000;stroke-width:0.5;" x="459.72782866" xlink:href="#m93b0483c22" y="158.166908646"/>
      </g>
     </g>
     <g id="line2d_46">
      <g>
       <use style="stroke:#000000;stroke-width:0.5;" x="459.72782866" xlink:href="#m741efc42ff" y="29.3130913536"/>
      </g>
     </g>
     <g id="text_25">
      <!-- 0.0 -->
      <g transform="translate(450.98001616 171.285033646)scale(0.12 -0.12)">
       <use xlink:href="#BitstreamVeraSans-Roman-30"/>
       <use x="63.623046875" xlink:href="#BitstreamVeraSans-Roman-2e"/>
       <use x="95.41015625" xlink:href="#BitstreamVeraSans-Roman-30"/>
      </g>
     </g>
    </g>
    <g id="xtick_14">
     <g id="line2d_47">
      <g>
       <use style="stroke:#000000;stroke-width:0.5;" x="489.012787136" xlink:href="#m93b0483c22" y="158.166908646"/>
      </g>
     </g>
     <g id="line2d_48">
      <g>
       <use style="stroke:#000000;stroke-width:0.5;" x="489.012787136" xlink:href="#m741efc42ff" y="29.3130913536"/>
      </g>
     </g>
     <g id="text_26">
      <!-- 0.5 -->
      <g transform="translate(480.390599636 171.285033646)scale(0.12 -0.12)">
       <use xlink:href="#BitstreamVeraSans-Roman-30"/>
       <use x="63.623046875" xlink:href="#BitstreamVeraSans-Roman-2e"/>
       <use x="95.41015625" xlink:href="#BitstreamVeraSans-Roman-35"/>
      </g>
     </g>
    </g>
    <g id="xtick_15">
     <g id="line2d_49">
      <g>
       <use style="stroke:#000000;stroke-width:0.5;" x="518.297745611" xlink:href="#m93b0483c22" y="158.166908646"/>
      </g>
     </g>
     <g id="line2d_50">
      <g>
       <use style="stroke:#000000;stroke-width:0.5;" x="518.297745611" xlink:href="#m741efc42ff" y="29.3130913536"/>
      </g>
     </g>
     <g id="text_27">
      <!-- 1.0 -->
      <g transform="translate(509.813370611 171.285033646)scale(0.12 -0.12)">
       <use xlink:href="#BitstreamVeraSans-Roman-31"/>
       <use x="63.623046875" xlink:href="#BitstreamVeraSans-Roman-2e"/>
       <use x="95.41015625" xlink:href="#BitstreamVeraSans-Roman-30"/>
      </g>
     </g>
    </g>
   </g>
   <g id="matplotlib.axis_6">
    <g id="ytick_11">
     <g id="line2d_51">
      <g>
       <use style="stroke:#000000;stroke-width:0.5;" x="395.300920014" xlink:href="#m728421d6d4" y="152.309916951"/>
      </g>
     </g>
     <g id="line2d_52">
      <g>
       <use style="stroke:#000000;stroke-width:0.5;" x="524.154737306" xlink:href="#mcb0005524f" y="152.309916951"/>
      </g>
     </g>
     <g id="text_28">
      <!-- −1.0 -->
      <g transform="translate(364.229670014 155.621166951)scale(0.12 -0.12)">
       <use xlink:href="#BitstreamVeraSans-Roman-2212"/>
       <use x="83.7890625" xlink:href="#BitstreamVeraSans-Roman-31"/>
       <use x="147.412109375" xlink:href="#BitstreamVeraSans-Roman-2e"/>
       <use x="179.19921875" xlink:href="#BitstreamVeraSans-Roman-30"/>
      </g>
     </g>
    </g>
    <g id="ytick_12">
     <g id="line2d_53">
      <g>
       <use style="stroke:#000000;stroke-width:0.5;" x="395.300920014" xlink:href="#m728421d6d4" y="123.024958476"/>
      </g>
     </g>
     <g id="line2d_54">
      <g>
       <use style="stroke:#000000;stroke-width:0.5;" x="524.154737306" xlink:href="#mcb0005524f" y="123.024958476"/>
      </g>
     </g>
     <g id="text_29">
      <!-- −0.5 -->
      <g transform="translate(364.480920014 126.336208476)scale(0.12 -0.12)">
       <use xlink:href="#BitstreamVeraSans-Roman-2212"/>
       <use x="83.7890625" xlink:href="#BitstreamVeraSans-Roman-30"/>
       <use x="147.412109375" xlink:href="#BitstreamVeraSans-Roman-2e"/>
       <use x="179.19921875" xlink:href="#BitstreamVeraSans-Roman-35"/>
      </g>
     </g>
    </g>
    <g id="ytick_13">
     <g id="line2d_55">
      <g>
       <use style="stroke:#000000;stroke-width:0.5;" x="395.300920014" xlink:href="#m728421d6d4" y="93.74"/>
      </g>
     </g>
     <g id="line2d_56">
      <g>
       <use style="stroke:#000000;stroke-width:0.5;" x="524.154737306" xlink:href="#mcb0005524f" y="93.74"/>
      </g>
     </g>
     <g id="text_30">
      <!-- 0.0 -->
      <g transform="translate(373.805295014 97.05125)scale(0.12 -0.12)">
       <use xlink:href="#BitstreamVeraSans-Roman-30"/>
       <use x="63.623046875" xlink:href="#BitstreamVeraSans-Roman-2e"/>
       <use x="95.41015625" xlink:href="#BitstreamVeraSans-Roman-30"/>
      </g>
     </g>
    </g>
    <g id="ytick_14">
     <g id="line2d_57">
      <g>
       <use style="stroke:#000000;stroke-width:0.5;" x="395.300920014" xlink:href="#m728421d6d4" y="64.4550415243"/>
      </g>
     </g>
     <g id="line2d_58">
      <g>
       <use style="stroke:#000000;stroke-width:0.5;" x="524.154737306" xlink:href="#mcb0005524f" y="64.4550415243"/>
      </g>
     </g>
     <g id="text_31">
      <!-- 0.5 -->
      <g transform="translate(374.056545014 67.7662915243)scale(0.12 -0.12)">
       <use xlink:href="#BitstreamVeraSans-Roman-30"/>
       <use x="63.623046875" xlink:href="#BitstreamVeraSans-Roman-2e"/>
       <use x="95.41015625" xlink:href="#BitstreamVeraSans-Roman-35"/>
      </g>
     </g>
    </g>
    <g id="ytick_15">
     <g id="line2d_59">
      <g>
       <use style="stroke:#000000;stroke-width:0.5;" x="395.300920014" xlink:href="#m728421d6d4" y="35.1700830487"/>
      </g>
     </g>
     <g id="line2d_60">
      <g>
       <use style="stroke:#000000;stroke-width:0.5;" x="524.154737306" xlink:href="#mcb0005524f" y="35.1700830487"/>
      </g>
     </g>
     <g id="text_32">
      <!-- 1.0 -->
      <g transform="translate(374.332170014 38.4813330487)scale(0.12 -0.12)">
       <use xlink:href="#BitstreamVeraSans-Roman-31"/>
       <use x="63.623046875" xlink:href="#BitstreamVeraSans-Roman-2e"/>
       <use x="95.41015625" xlink:href="#BitstreamVeraSans-Roman-30"/>
      </g>
     </g>
    </g>
   </g>
   <g id="text_33">
    <!-- $k=6$, 128 vertices -->
    <defs>
     <path d="
M25 -2.20312
Q18.7969 -2.20312 14.6406 1.09375
Q10.5 4.39062 8.21875 9.64062
Q5.95312 14.8906 5.07812 20.6562
Q4.20312 26.4219 4.20312 32.3281
Q4.20312 40.2344 7.28125 48.1875
Q10.3594 56.1562 16.3281 61.375
Q22.3125 66.6094 30.5156 66.6094
Q33.9375 66.6094 36.8906 65.3125
Q39.8438 64.0156 41.5312 61.5
Q43.2188 58.9844 43.2188 55.4219
Q43.2188 53.375 41.8281 51.9844
Q40.4375 50.5938 38.375 50.5938
Q36.4219 50.5938 35 52
Q33.5938 53.4219 33.5938 55.4219
Q33.5938 57.375 35 58.7812
Q36.4219 60.2031 38.375 60.2031
L38.9219 60.2031
Q37.6406 62.0156 35.3281 62.8594
Q33.0156 63.7188 30.5156 63.7188
Q27.4844 63.7188 24.9219 62.3906
Q22.3594 61.0781 20.3125 58.8281
Q18.2656 56.5938 16.8906 53.875
Q15.5312 51.1719 14.7656 47.7031
Q14.0156 44.2344 13.8125 41.2031
Q13.625 38.1875 13.625 33.5938
Q15.375 37.7031 18.5938 40.3125
Q21.8281 42.9219 25.875 42.9219
Q30.3281 42.9219 33.9844 41.1094
Q37.6406 39.3125 40.2812 36.1094
Q42.9219 32.9062 44.3125 28.7969
Q45.7031 24.7031 45.7031 20.5156
Q45.7031 14.6562 43.0938 9.34375
Q40.4844 4.04688 35.7344 0.921875
Q31 -2.20312 25 -2.20312
M25 0.984375
Q28.8594 0.984375 31.2031 2.73438
Q33.5469 4.5 34.6406 7.39062
Q35.75 10.2969 36.0156 13.25
Q36.2812 16.2188 36.2812 20.5156
Q36.2812 26.1719 35.7344 30.1719
Q35.2031 34.1875 32.8125 37.2344
Q30.4219 40.2812 25.4844 40.2812
Q21.4375 40.2812 18.8281 37.5469
Q16.2188 34.8125 15.0156 30.6406
Q13.8125 26.4688 13.8125 22.6094
Q13.8125 21.2969 13.9219 20.6094
Q13.9219 20.4531 13.8906 20.3594
Q13.875 20.2656 13.8125 20.125
Q13.8125 15.8281 14.6875 11.4219
Q15.5781 7.03125 18.0625 4
Q20.5625 0.984375 25 0.984375" id="Cmr10-36"/>
    </defs>
    <g transform="translate(395.79182866 24.3130913536)scale(0.144 -0.144)">
     <use transform="translate(0.0 0.015625)" xlink:href="#Cmmi10-6b"/>
     <use transform="translate(69.560546875 0.015625)" xlink:href="#Cmr10-3d"/>
     <use transform="translate(153.619140625 0.015625)" xlink:href="#Cmr10-36"/>
     <use transform="translate(203.619140625 0.015625)" xlink:href="#BitstreamVeraSans-Roman-2c"/>
     <use transform="translate(235.40625 0.015625)" xlink:href="#BitstreamVeraSans-Roman-20"/>
     <use transform="translate(267.193359375 0.015625)" xlink:href="#BitstreamVeraSans-Roman-31"/>
     <use transform="translate(330.81640625 0.015625)" xlink:href="#BitstreamVeraSans-Roman-32"/>
     <use transform="translate(394.439453125 0.015625)" xlink:href="#BitstreamVeraSans-Roman-38"/>
     <use transform="translate(458.0625 0.015625)" xlink:href="#BitstreamVeraSans-Roman-20"/>
     <use transform="translate(489.849609375 0.015625)" xlink:href="#BitstreamVeraSans-Roman-76"/>
     <use transform="translate(549.029296875 0.015625)" xlink:href="#BitstreamVeraSans-Roman-65"/>
     <use transform="translate(610.552734375 0.015625)" xlink:href="#BitstreamVeraSans-Roman-72"/>
     <use transform="translate(651.666015625 0.015625)" xlink:href="#BitstreamVeraSans-Roman-74"/>
     <use transform="translate(690.875 0.015625)" xlink:href="#BitstreamVeraSans-Roman-69"/>
     <use transform="translate(718.658203125 0.015625)" xlink:href="#BitstreamVeraSans-Roman-63"/>
     <use transform="translate(773.638671875 0.015625)" xlink:href="#BitstreamVeraSans-Roman-65"/>
     <use transform="translate(835.162109375 0.015625)" xlink:href="#BitstreamVeraSans-Roman-73"/>
    </g>
   </g>
  </g>
  <g id="axes_4">
   <g id="patch_17">
    <path d="
M43.9459 331.687
L172.8 331.687
L172.8 202.833
L43.9459 202.833
z
" style="fill:#ffffff;"/>
   </g>
   <g id="PolyCollection_4">
    <defs>
     <path d="
M108.373 -33.0226
L85.52 -37.5683
L66.1463 -50.5134
L53.2012 -69.8872
L48.6555 -92.74
L53.2012 -115.593
L66.1463 -134.967
L85.52 -147.912
L108.373 -152.457
L131.226 -147.912
L150.599 -134.967
L163.545 -115.593
L168.09 -92.74
L163.545 -69.8872
L150.599 -50.5134
L131.226 -37.5683
z
" id="m7725c9deda" style="stroke:#000000;"/>
    </defs>
    <g clip-path="url(#pa1a909668b)">
     <use style="fill:#bfbfbf;stroke:#000000;" x="0.0" xlink:href="#m7725c9deda" y="360.0"/>
    </g>
   </g>
   <g id="patch_18">
    <path d="
M43.9459 202.833
L172.8 202.833" style="fill:none;stroke:#000000;stroke-linecap:square;stroke-linejoin:miter;"/>
   </g>
   <g id="patch_19">
    <path d="
M172.8 331.687
L172.8 202.833" style="fill:none;stroke:#000000;stroke-linecap:square;stroke-linejoin:miter;"/>
   </g>
   <g id="patch_20">
    <path d="
M43.9459 331.687
L172.8 331.687" style="fill:none;stroke:#000000;stroke-linecap:square;stroke-linejoin:miter;"/>
   </g>
   <g id="patch_21">
    <path d="
M43.9459 331.687
L43.9459 202.833" style="fill:none;stroke:#000000;stroke-linecap:square;stroke-linejoin:miter;"/>
   </g>
   <g id="matplotlib.axis_7">
    <g id="xtick_16">
     <g id="line2d_61">
      <g>
       <use style="stroke:#000000;stroke-width:0.5;" x="49.8029291951" xlink:href="#m93b0483c22" y="331.686908646"/>
      </g>
     </g>
     <g id="line2d_62">
      <g>
       <use style="stroke:#000000;stroke-width:0.5;" x="49.8029291951" xlink:href="#m741efc42ff" y="202.833091354"/>
      </g>
     </g>
     <g id="text_34">
      <!-- −1.0 -->
      <g transform="translate(36.2673041951 344.805033646)scale(0.12 -0.12)">
       <use xlink:href="#BitstreamVeraSans-Roman-2212"/>
       <use x="83.7890625" xlink:href="#BitstreamVeraSans-Roman-31"/>
       <use x="147.412109375" xlink:href="#BitstreamVeraSans-Roman-2e"/>
       <use x="179.19921875" xlink:href="#BitstreamVeraSans-Roman-30"/>
      </g>
     </g>
    </g>
    <g id="xtick_17">
     <g id="line2d_63">
      <g>
       <use style="stroke:#000000;stroke-width:0.5;" x="79.0878876708" xlink:href="#m93b0483c22" y="331.686908646"/>
      </g>
     </g>
     <g id="line2d_64">
      <g>
       <use style="stroke:#000000;stroke-width:0.5;" x="79.0878876708" xlink:href="#m741efc42ff" y="202.833091354"/>
      </g>
     </g>
     <g id="text_35">
      <!-- −0.5 -->
      <g transform="translate(65.6778876708 344.805033646)scale(0.12 -0.12)">
       <use xlink:href="#BitstreamVeraSans-Roman-2212"/>
       <use x="83.7890625" xlink:href="#BitstreamVeraSans-Roman-30"/>
       <use x="147.412109375" xlink:href="#BitstreamVeraSans-Roman-2e"/>
       <use x="179.19921875" xlink:href="#BitstreamVeraSans-Roman-35"/>
      </g>
     </g>
    </g>
    <g id="xtick_18">
     <g id="line2d_65">
      <g>
       <use style="stroke:#000000;stroke-width:0.5;" x="108.372846146" xlink:href="#m93b0483c22" y="331.686908646"/>
      </g>
     </g>
     <g id="line2d_66">
      <g>
       <use style="stroke:#000000;stroke-width:0.5;" x="108.372846146" xlink:href="#m741efc42ff" y="202.833091354"/>
      </g>
     </g>
     <g id="text_36">
      <!-- 0.0 -->
      <g transform="translate(99.6250336464 344.805033646)scale(0.12 -0.12)">
       <use xlink:href="#BitstreamVeraSans-Roman-30"/>
       <use x="63.623046875" xlink:href="#BitstreamVeraSans-Roman-2e"/>
       <use x="95.41015625" xlink:href="#BitstreamVeraSans-Roman-30"/>
      </g>
     </g>
    </g>
    <g id="xtick_19">
     <g id="line2d_67">
      <g>
       <use style="stroke:#000000;stroke-width:0.5;" x="137.657804622" xlink:href="#m93b0483c22" y="331.686908646"/>
      </g>
     </g>
     <g id="line2d_68">
      <g>
       <use style="stroke:#000000;stroke-width:0.5;" x="137.657804622" xlink:href="#m741efc42ff" y="202.833091354"/>
      </g>
     </g>
     <g id="text_37">
      <!-- 0.5 -->
      <g transform="translate(129.035617122 344.805033646)scale(0.12 -0.12)">
       <use xlink:href="#BitstreamVeraSans-Roman-30"/>
       <use x="63.623046875" xlink:href="#BitstreamVeraSans-Roman-2e"/>
       <use x="95.41015625" xlink:href="#BitstreamVeraSans-Roman-35"/>
      </g>
     </g>
    </g>
    <g id="xtick_20">
     <g id="line2d_69">
      <g>
       <use style="stroke:#000000;stroke-width:0.5;" x="166.942763098" xlink:href="#m93b0483c22" y="331.686908646"/>
      </g>
     </g>
     <g id="line2d_70">
      <g>
       <use style="stroke:#000000;stroke-width:0.5;" x="166.942763098" xlink:href="#m741efc42ff" y="202.833091354"/>
      </g>
     </g>
     <g id="text_38">
      <!-- 1.0 -->
      <g transform="translate(158.458388098 344.805033646)scale(0.12 -0.12)">
       <use xlink:href="#BitstreamVeraSans-Roman-31"/>
       <use x="63.623046875" xlink:href="#BitstreamVeraSans-Roman-2e"/>
       <use x="95.41015625" xlink:href="#BitstreamVeraSans-Roman-30"/>
      </g>
     </g>
    </g>
   </g>
   <g id="matplotlib.axis_8">
    <g id="ytick_16">
     <g id="line2d_71">
      <g>
       <use style="stroke:#000000;stroke-width:0.5;" x="43.9459375" xlink:href="#m728421d6d4" y="325.829916951"/>
      </g>
     </g>
     <g id="line2d_72">
      <g>
       <use style="stroke:#000000;stroke-width:0.5;" x="172.799754793" xlink:href="#mcb0005524f" y="325.829916951"/>
      </g>
     </g>
     <g id="text_39">
      <!-- −1.0 -->
      <g transform="translate(12.8746875 329.141166951)scale(0.12 -0.12)">
       <use xlink:href="#BitstreamVeraSans-Roman-2212"/>
       <use x="83.7890625" xlink:href="#BitstreamVeraSans-Roman-31"/>
       <use x="147.412109375" xlink:href="#BitstreamVeraSans-Roman-2e"/>
       <use x="179.19921875" xlink:href="#BitstreamVeraSans-Roman-30"/>
      </g>
     </g>
    </g>
    <g id="ytick_17">
     <g id="line2d_73">
      <g>
       <use style="stroke:#000000;stroke-width:0.5;" x="43.9459375" xlink:href="#m728421d6d4" y="296.544958476"/>
      </g>
     </g>
     <g id="line2d_74">
      <g>
       <use style="stroke:#000000;stroke-width:0.5;" x="172.799754793" xlink:href="#mcb0005524f" y="296.544958476"/>
      </g>
     </g>
     <g id="text_40">
      <!-- −0.5 -->
      <g transform="translate(13.1259375 299.856208476)scale(0.12 -0.12)">
       <use xlink:href="#BitstreamVeraSans-Roman-2212"/>
       <use x="83.7890625" xlink:href="#BitstreamVeraSans-Roman-30"/>
       <use x="147.412109375" xlink:href="#BitstreamVeraSans-Roman-2e"/>
       <use x="179.19921875" xlink:href="#BitstreamVeraSans-Roman-35"/>
      </g>
     </g>
    </g>
    <g id="ytick_18">
     <g id="line2d_75">
      <g>
       <use style="stroke:#000000;stroke-width:0.5;" x="43.9459375" xlink:href="#m728421d6d4" y="267.26"/>
      </g>
     </g>
     <g id="line2d_76">
      <g>
       <use style="stroke:#000000;stroke-width:0.5;" x="172.799754793" xlink:href="#mcb0005524f" y="267.26"/>
      </g>
     </g>
     <g id="text_41">
      <!-- 0.0 -->
      <g transform="translate(22.4503125 270.57125)scale(0.12 -0.12)">
       <use xlink:href="#BitstreamVeraSans-Roman-30"/>
       <use x="63.623046875" xlink:href="#BitstreamVeraSans-Roman-2e"/>
       <use x="95.41015625" xlink:href="#BitstreamVeraSans-Roman-30"/>
      </g>
     </g>
    </g>
    <g id="ytick_19">
     <g id="line2d_77">
      <g>
       <use style="stroke:#000000;stroke-width:0.5;" x="43.9459375" xlink:href="#m728421d6d4" y="237.975041524"/>
      </g>
     </g>
     <g id="line2d_78">
      <g>
       <use style="stroke:#000000;stroke-width:0.5;" x="172.799754793" xlink:href="#mcb0005524f" y="237.975041524"/>
      </g>
     </g>
     <g id="text_42">
      <!-- 0.5 -->
      <g transform="translate(22.7015625 241.286291524)scale(0.12 -0.12)">
       <use xlink:href="#BitstreamVeraSans-Roman-30"/>
       <use x="63.623046875" xlink:href="#BitstreamVeraSans-Roman-2e"/>
       <use x="95.41015625" xlink:href="#BitstreamVeraSans-Roman-35"/>
      </g>
     </g>
    </g>
    <g id="ytick_20">
     <g id="line2d_79">
      <g>
       <use style="stroke:#000000;stroke-width:0.5;" x="43.9459375" xlink:href="#m728421d6d4" y="208.690083049"/>
      </g>
     </g>
     <g id="line2d_80">
      <g>
       <use style="stroke:#000000;stroke-width:0.5;" x="172.799754793" xlink:href="#mcb0005524f" y="208.690083049"/>
      </g>
     </g>
     <g id="text_43">
      <!-- 1.0 -->
      <g transform="translate(22.9771875 212.001333049)scale(0.12 -0.12)">
       <use xlink:href="#BitstreamVeraSans-Roman-31"/>
       <use x="63.623046875" xlink:href="#BitstreamVeraSans-Roman-2e"/>
       <use x="95.41015625" xlink:href="#BitstreamVeraSans-Roman-30"/>
      </g>
     </g>
    </g>
   </g>
   <g id="text_44">
    <!-- $k=3$, 16 vertices -->
    <defs>
     <path d="
M9.51562 7.71875
Q11.8594 4.29688 15.8125 2.64062
Q19.7812 0.984375 24.3125 0.984375
Q30.125 0.984375 32.5625 5.9375
Q35.0156 10.8906 35.0156 17.1875
Q35.0156 20.0156 34.5 22.8438
Q33.9844 25.6875 32.7656 28.125
Q31.5469 30.5625 29.4219 32.0312
Q27.2969 33.5 24.2188 33.5
L17.5781 33.5
Q16.7031 33.5 16.7031 34.4219
L16.7031 35.2969
Q16.7031 36.0781 17.5781 36.0781
L23.0938 36.5312
Q26.6094 36.5312 28.9219 39.1562
Q31.25 41.7969 32.3281 45.5781
Q33.4062 49.3594 33.4062 52.7812
Q33.4062 57.5625 31.1562 60.6406
Q28.9062 63.7188 24.3125 63.7188
Q20.5156 63.7188 17.0469 62.2812
Q13.5781 60.8438 11.5312 57.9062
Q11.7188 57.9531 11.8594 57.9844
Q12.0156 58.0156 12.2031 58.0156
Q14.4531 58.0156 15.9688 56.4531
Q17.4844 54.8906 17.4844 52.6875
Q17.4844 50.5312 15.9688 48.9688
Q14.4531 47.4062 12.2031 47.4062
Q10.0156 47.4062 8.45312 48.9688
Q6.89062 50.5312 6.89062 52.6875
Q6.89062 56.9844 9.46875 60.1562
Q12.0625 63.3281 16.1406 64.9688
Q20.2188 66.6094 24.3125 66.6094
Q27.3438 66.6094 30.7031 65.7031
Q34.0781 64.7969 36.8125 63.1094
Q39.5469 61.4219 41.2812 58.7812
Q43.0156 56.1562 43.0156 52.7812
Q43.0156 48.5781 41.1406 45.0156
Q39.2656 41.4531 35.9844 38.8594
Q32.7188 36.2812 28.8125 35.0156
Q33.1562 34.1875 37.0625 31.7344
Q40.9688 29.2969 43.3281 25.4844
Q45.7031 21.6875 45.7031 17.2812
Q45.7031 11.7656 42.6719 7.29688
Q39.6562 2.82812 34.7188 0.3125
Q29.7812 -2.20312 24.3125 -2.20312
Q19.625 -2.20312 14.9062 -0.40625
Q10.2031 1.375 7.20312 4.9375
Q4.20312 8.5 4.20312 13.4844
Q4.20312 15.9688 5.85938 17.625
Q7.51562 19.2812 10.0156 19.2812
Q11.625 19.2812 12.9688 18.5312
Q14.3125 17.7812 15.0625 16.4062
Q15.8281 15.0469 15.8281 13.4844
Q15.8281 11.0312 14.1094 9.375
Q12.4062 7.71875 10.0156 7.71875
z
" id="Cmr10-33"/>
     <path d="
M33.0156 40.375
Q26.375 40.375 22.4844 35.8281
Q18.6094 31.2969 18.6094 23.3906
Q18.6094 15.5312 22.4844 10.9531
Q26.375 6.39062 33.0156 6.39062
Q39.6562 6.39062 43.5312 10.9531
Q47.4062 15.5312 47.4062 23.3906
Q47.4062 31.2969 43.5312 35.8281
Q39.6562 40.375 33.0156 40.375
M52.5938 71.2969
L52.5938 62.3125
Q48.875 64.0625 45.0938 64.9844
Q41.3125 65.9219 37.5938 65.9219
Q27.8281 65.9219 22.6719 59.3281
Q17.5312 52.7344 16.7969 39.4062
Q19.6719 43.6562 24.0156 45.9219
Q28.375 48.1875 33.5938 48.1875
Q44.5781 48.1875 50.9531 41.5156
Q57.3281 34.8594 57.3281 23.3906
Q57.3281 12.1562 50.6875 5.35938
Q44.0469 -1.42188 33.0156 -1.42188
Q20.3594 -1.42188 13.6719 8.26562
Q6.98438 17.9688 6.98438 36.375
Q6.98438 53.6562 15.1875 63.9375
Q23.3906 74.2188 37.2031 74.2188
Q40.9219 74.2188 44.7031 73.4844
Q48.4844 72.75 52.5938 71.2969" id="BitstreamVeraSans-Roman-36"/>
    </defs>
    <g transform="translate(49.0448461464 197.833091354)scale(0.144 -0.144)">
     <use transform="translate(0.0 0.015625)" xlink:href="#Cmmi10-6b"/>
     <use transform="translate(69.560546875 0.015625)" xlink:href="#Cmr10-3d"/>
     <use transform="translate(153.619140625 0.015625)" xlink:href="#Cmr10-33"/>
     <use transform="translate(203.619140625 0.015625)" xlink:href="#BitstreamVeraSans-Roman-2c"/>
     <use transform="translate(235.40625 0.015625)" xlink:href="#BitstreamVeraSans-Roman-20"/>
     <use transform="translate(267.193359375 0.015625)" xlink:href="#BitstreamVeraSans-Roman-31"/>
     <use transform="translate(330.81640625 0.015625)" xlink:href="#BitstreamVeraSans-Roman-36"/>
     <use transform="translate(394.439453125 0.015625)" xlink:href="#BitstreamVeraSans-Roman-20"/>
     <use transform="translate(426.2265625 0.015625)" xlink:href="#BitstreamVeraSans-Roman-76"/>
     <use transform="translate(485.40625 0.015625)" xlink:href="#BitstreamVeraSans-Roman-65"/>
     <use transform="translate(546.9296875 0.015625)" xlink:href="#BitstreamVeraSans-Roman-72"/>
     <use transform="translate(588.04296875 0.015625)" xlink:href="#BitstreamVeraSans-Roman-74"/>
     <use transform="translate(627.251953125 0.015625)" xlink:href="#BitstreamVeraSans-Roman-69"/>
     <use transform="translate(655.03515625 0.015625)" xlink:href="#BitstreamVeraSans-Roman-63"/>
     <use transform="translate(710.015625 0.015625)" xlink:href="#BitstreamVeraSans-Roman-65"/>
     <use transform="translate(771.5390625 0.015625)" xlink:href="#BitstreamVeraSans-Roman-73"/>
    </g>
   </g>
  </g>
  <g id="axes_5">
   <g id="patch_22">
    <path d="
M219.623 331.687
L348.477 331.687
L348.477 202.833
L219.623 202.833
z
" style="fill:#ffffff;"/>
   </g>
   <g id="PolyCollection_5">
    <defs>
     <path d="
M284.05 -34.0994
L278.303 -34.3818
L272.61 -35.2262
L267.028 -36.6245
L261.61 -38.5632
L256.407 -41.0237
L251.471 -43.9822
L246.849 -47.4102
L242.585 -51.2749
L238.721 -55.5388
L235.293 -60.1611
L232.334 -65.097
L229.874 -70.2992
L227.935 -75.7175
L226.537 -81.2998
L225.692 -86.9922
L225.41 -92.74
L225.692 -98.4878
L226.537 -104.18
L227.935 -109.762
L229.874 -115.181
L232.334 -120.383
L235.293 -125.319
L238.721 -129.941
L242.585 -134.205
L246.849 -138.07
L251.471 -141.498
L256.407 -144.456
L261.61 -146.917
L267.028 -148.856
L272.61 -150.254
L278.303 -151.098
L284.05 -151.381
L289.798 -151.098
L295.491 -150.254
L301.073 -148.856
L306.491 -146.917
L311.693 -144.456
L316.629 -141.498
L321.252 -138.07
L325.515 -134.205
L329.38 -129.941
L332.808 -125.319
L335.767 -120.383
L338.227 -115.181
L340.166 -109.762
L341.564 -104.18
L342.409 -98.4878
L342.691 -92.74
L342.409 -86.9922
L341.564 -81.2998
L340.166 -75.7175
L338.227 -70.2992
L335.767 -65.097
L332.808 -60.1611
L329.38 -55.5388
L325.515 -51.2749
L321.252 -47.4102
L316.629 -43.9822
L311.693 -41.0237
L306.491 -38.5632
L301.073 -36.6245
L295.491 -35.2262
L289.798 -34.3818
z
" id="md57c6b259d" style="stroke:#000000;"/>
    </defs>
    <g clip-path="url(#pa1da38c055)">
     <use style="fill:#bfbfbf;stroke:#000000;" x="0.0" xlink:href="#md57c6b259d" y="360.0"/>
    </g>
   </g>
   <g id="patch_23">
    <path d="
M219.623 202.833
L348.477 202.833" style="fill:none;stroke:#000000;stroke-linecap:square;stroke-linejoin:miter;"/>
   </g>
   <g id="patch_24">
    <path d="
M348.477 331.687
L348.477 202.833" style="fill:none;stroke:#000000;stroke-linecap:square;stroke-linejoin:miter;"/>
   </g>
   <g id="patch_25">
    <path d="
M219.623 331.687
L348.477 331.687" style="fill:none;stroke:#000000;stroke-linecap:square;stroke-linejoin:miter;"/>
   </g>
   <g id="patch_26">
    <path d="
M219.623 331.687
L219.623 202.833" style="fill:none;stroke:#000000;stroke-linecap:square;stroke-linejoin:miter;"/>
   </g>
   <g id="matplotlib.axis_9">
    <g id="xtick_21">
     <g id="line2d_81">
      <g>
       <use style="stroke:#000000;stroke-width:0.5;" x="225.480420452" xlink:href="#m93b0483c22" y="331.686908646"/>
      </g>
     </g>
     <g id="line2d_82">
      <g>
       <use style="stroke:#000000;stroke-width:0.5;" x="225.480420452" xlink:href="#m741efc42ff" y="202.833091354"/>
      </g>
     </g>
     <g id="text_45">
      <!-- −1.0 -->
      <g transform="translate(211.944795452 344.805033646)scale(0.12 -0.12)">
       <use xlink:href="#BitstreamVeraSans-Roman-2212"/>
       <use x="83.7890625" xlink:href="#BitstreamVeraSans-Roman-31"/>
       <use x="147.412109375" xlink:href="#BitstreamVeraSans-Roman-2e"/>
       <use x="179.19921875" xlink:href="#BitstreamVeraSans-Roman-30"/>
      </g>
     </g>
    </g>
    <g id="xtick_22">
     <g id="line2d_83">
      <g>
       <use style="stroke:#000000;stroke-width:0.5;" x="254.765378928" xlink:href="#m93b0483c22" y="331.686908646"/>
      </g>
     </g>
     <g id="line2d_84">
      <g>
       <use style="stroke:#000000;stroke-width:0.5;" x="254.765378928" xlink:href="#m741efc42ff" y="202.833091354"/>
      </g>
     </g>
     <g id="text_46">
      <!-- −0.5 -->
      <g transform="translate(241.355378928 344.805033646)scale(0.12 -0.12)">
       <use xlink:href="#BitstreamVeraSans-Roman-2212"/>
       <use x="83.7890625" xlink:href="#BitstreamVeraSans-Roman-30"/>
       <use x="147.412109375" xlink:href="#BitstreamVeraSans-Roman-2e"/>
       <use x="179.19921875" xlink:href="#BitstreamVeraSans-Roman-35"/>
      </g>
     </g>
    </g>
    <g id="xtick_23">
     <g id="line2d_85">
      <g>
       <use style="stroke:#000000;stroke-width:0.5;" x="284.050337403" xlink:href="#m93b0483c22" y="331.686908646"/>
      </g>
     </g>
     <g id="line2d_86">
      <g>
       <use style="stroke:#000000;stroke-width:0.5;" x="284.050337403" xlink:href="#m741efc42ff" y="202.833091354"/>
      </g>
     </g>
     <g id="text_47">
      <!-- 0.0 -->
      <g transform="translate(275.302524903 344.805033646)scale(0.12 -0.12)">
       <use xlink:href="#BitstreamVeraSans-Roman-30"/>
       <use x="63.623046875" xlink:href="#BitstreamVeraSans-Roman-2e"/>
       <use x="95.41015625" xlink:href="#BitstreamVeraSans-Roman-30"/>
      </g>
     </g>
    </g>
    <g id="xtick_24">
     <g id="line2d_87">
      <g>
       <use style="stroke:#000000;stroke-width:0.5;" x="313.335295879" xlink:href="#m93b0483c22" y="331.686908646"/>
      </g>
     </g>
     <g id="line2d_88">
      <g>
       <use style="stroke:#000000;stroke-width:0.5;" x="313.335295879" xlink:href="#m741efc42ff" y="202.833091354"/>
      </g>
     </g>
     <g id="text_48">
      <!-- 0.5 -->
      <g transform="translate(304.713108379 344.805033646)scale(0.12 -0.12)">
       <use xlink:href="#BitstreamVeraSans-Roman-30"/>
       <use x="63.623046875" xlink:href="#BitstreamVeraSans-Roman-2e"/>
       <use x="95.41015625" xlink:href="#BitstreamVeraSans-Roman-35"/>
      </g>
     </g>
    </g>
    <g id="xtick_25">
     <g id="line2d_89">
      <g>
       <use style="stroke:#000000;stroke-width:0.5;" x="342.620254355" xlink:href="#m93b0483c22" y="331.686908646"/>
      </g>
     </g>
     <g id="line2d_90">
      <g>
       <use style="stroke:#000000;stroke-width:0.5;" x="342.620254355" xlink:href="#m741efc42ff" y="202.833091354"/>
      </g>
     </g>
     <g id="text_49">
      <!-- 1.0 -->
      <g transform="translate(334.135879355 344.805033646)scale(0.12 -0.12)">
       <use xlink:href="#BitstreamVeraSans-Roman-31"/>
       <use x="63.623046875" xlink:href="#BitstreamVeraSans-Roman-2e"/>
       <use x="95.41015625" xlink:href="#BitstreamVeraSans-Roman-30"/>
      </g>
     </g>
    </g>
   </g>
   <g id="matplotlib.axis_10">
    <g id="ytick_21">
     <g id="line2d_91">
      <g>
       <use style="stroke:#000000;stroke-width:0.5;" x="219.623428757" xlink:href="#m728421d6d4" y="325.829916951"/>
      </g>
     </g>
     <g id="line2d_92">
      <g>
       <use style="stroke:#000000;stroke-width:0.5;" x="348.47724605" xlink:href="#mcb0005524f" y="325.829916951"/>
      </g>
     </g>
     <g id="text_50">
      <!-- −1.0 -->
      <g transform="translate(188.552178757 329.141166951)scale(0.12 -0.12)">
       <use xlink:href="#BitstreamVeraSans-Roman-2212"/>
       <use x="83.7890625" xlink:href="#BitstreamVeraSans-Roman-31"/>
       <use x="147.412109375" xlink:href="#BitstreamVeraSans-Roman-2e"/>
       <use x="179.19921875" xlink:href="#BitstreamVeraSans-Roman-30"/>
      </g>
     </g>
    </g>
    <g id="ytick_22">
     <g id="line2d_93">
      <g>
       <use style="stroke:#000000;stroke-width:0.5;" x="219.623428757" xlink:href="#m728421d6d4" y="296.544958476"/>
      </g>
     </g>
     <g id="line2d_94">
      <g>
       <use style="stroke:#000000;stroke-width:0.5;" x="348.47724605" xlink:href="#mcb0005524f" y="296.544958476"/>
      </g>
     </g>
     <g id="text_51">
      <!-- −0.5 -->
      <g transform="translate(188.803428757 299.856208476)scale(0.12 -0.12)">
       <use xlink:href="#BitstreamVeraSans-Roman-2212"/>
       <use x="83.7890625" xlink:href="#BitstreamVeraSans-Roman-30"/>
       <use x="147.412109375" xlink:href="#BitstreamVeraSans-Roman-2e"/>
       <use x="179.19921875" xlink:href="#BitstreamVeraSans-Roman-35"/>
      </g>
     </g>
    </g>
    <g id="ytick_23">
     <g id="line2d_95">
      <g>
       <use style="stroke:#000000;stroke-width:0.5;" x="219.623428757" xlink:href="#m728421d6d4" y="267.26"/>
      </g>
     </g>
     <g id="line2d_96">
      <g>
       <use style="stroke:#000000;stroke-width:0.5;" x="348.47724605" xlink:href="#mcb0005524f" y="267.26"/>
      </g>
     </g>
     <g id="text_52">
      <!-- 0.0 -->
      <g transform="translate(198.127803757 270.57125)scale(0.12 -0.12)">
       <use xlink:href="#BitstreamVeraSans-Roman-30"/>
       <use x="63.623046875" xlink:href="#BitstreamVeraSans-Roman-2e"/>
       <use x="95.41015625" xlink:href="#BitstreamVeraSans-Roman-30"/>
      </g>
     </g>
    </g>
    <g id="ytick_24">
     <g id="line2d_97">
      <g>
       <use style="stroke:#000000;stroke-width:0.5;" x="219.623428757" xlink:href="#m728421d6d4" y="237.975041524"/>
      </g>
     </g>
     <g id="line2d_98">
      <g>
       <use style="stroke:#000000;stroke-width:0.5;" x="348.47724605" xlink:href="#mcb0005524f" y="237.975041524"/>
      </g>
     </g>
     <g id="text_53">
      <!-- 0.5 -->
      <g transform="translate(198.379053757 241.286291524)scale(0.12 -0.12)">
       <use xlink:href="#BitstreamVeraSans-Roman-30"/>
       <use x="63.623046875" xlink:href="#BitstreamVeraSans-Roman-2e"/>
       <use x="95.41015625" xlink:href="#BitstreamVeraSans-Roman-35"/>
      </g>
     </g>
    </g>
    <g id="ytick_25">
     <g id="line2d_99">
      <g>
       <use style="stroke:#000000;stroke-width:0.5;" x="219.623428757" xlink:href="#m728421d6d4" y="208.690083049"/>
      </g>
     </g>
     <g id="line2d_100">
      <g>
       <use style="stroke:#000000;stroke-width:0.5;" x="348.47724605" xlink:href="#mcb0005524f" y="208.690083049"/>
      </g>
     </g>
     <g id="text_54">
      <!-- 1.0 -->
      <g transform="translate(198.654678757 212.001333049)scale(0.12 -0.12)">
       <use xlink:href="#BitstreamVeraSans-Roman-31"/>
       <use x="63.623046875" xlink:href="#BitstreamVeraSans-Roman-2e"/>
       <use x="95.41015625" xlink:href="#BitstreamVeraSans-Roman-30"/>
      </g>
     </g>
    </g>
   </g>
   <g id="text_55">
    <!-- $k=5$, 64 vertices -->
    <defs>
     <path d="
M37.7969 64.3125
L12.8906 25.3906
L37.7969 25.3906
z

M35.2031 72.9062
L47.6094 72.9062
L47.6094 25.3906
L58.0156 25.3906
L58.0156 17.1875
L47.6094 17.1875
L47.6094 0
L37.7969 0
L37.7969 17.1875
L4.89062 17.1875
L4.89062 26.7031
z
" id="BitstreamVeraSans-Roman-34"/>
     <path d="
M8.6875 11.375
Q9.71875 8.45312 11.8438 6.04688
Q13.9688 3.65625 16.875 2.3125
Q19.7812 0.984375 22.9062 0.984375
Q30.125 0.984375 32.8594 6.59375
Q35.5938 12.2031 35.5938 20.2188
Q35.5938 23.6875 35.4688 26.0469
Q35.3594 28.4219 34.8125 30.6094
Q33.8906 34.125 31.5625 36.7656
Q29.25 39.4062 25.875 39.4062
Q22.5156 39.4062 20.0938 38.375
Q17.6719 37.3594 16.1562 35.9844
Q14.6562 34.625 13.4844 33.1094
Q12.3125 31.5938 12.0156 31.5
L10.8906 31.5
Q10.6406 31.5 10.2656 31.8125
Q9.90625 32.125 9.90625 32.4219
L9.90625 65.8281
Q9.90625 66.0625 10.2188 66.3281
Q10.5469 66.6094 10.8906 66.6094
L11.1875 66.6094
Q17.9219 63.375 25.4844 63.375
Q32.9062 63.375 39.7969 66.6094
L40.0938 66.6094
Q40.4375 66.6094 40.7188 66.3594
Q41.0156 66.1094 41.0156 65.8281
L41.0156 64.8906
Q41.0156 64.4062 40.8281 64.4062
Q37.4062 59.8594 32.25 57.3125
Q27.0938 54.7812 21.5781 54.7812
Q17.5781 54.7812 13.375 55.9062
L13.375 37.0156
Q16.7031 39.7031 19.3125 40.8438
Q21.9219 42 25.9844 42
Q31.5 42 35.8594 38.8125
Q40.2344 35.6406 42.5781 30.5312
Q44.9219 25.4375 44.9219 20.125
Q44.9219 14.1094 41.9688 8.98438
Q39.0156 3.85938 33.9375 0.828125
Q28.8594 -2.20312 22.9062 -2.20312
Q17.9688 -2.20312 13.8438 0.328125
Q9.71875 2.875 7.34375 7.17188
Q4.98438 11.4688 4.98438 16.3125
Q4.98438 18.5625 6.4375 19.9688
Q7.90625 21.3906 10.1094 21.3906
Q12.3125 21.3906 13.7969 19.9375
Q15.2812 18.5 15.2812 16.3125
Q15.2812 14.1562 13.7969 12.6719
Q12.3125 11.1875 10.1094 11.1875
Q9.76562 11.1875 9.32812 11.25
Q8.89062 11.3281 8.6875 11.375" id="Cmr10-35"/>
    </defs>
    <g transform="translate(224.722337403 197.833091354)scale(0.144 -0.144)">
     <use transform="translate(0.0 0.015625)" xlink:href="#Cmmi10-6b"/>
     <use transform="translate(69.560546875 0.015625)" xlink:href="#Cmr10-3d"/>
     <use transform="translate(153.619140625 0.015625)" xlink:href="#Cmr10-35"/>
     <use transform="translate(203.619140625 0.015625)" xlink:href="#BitstreamVeraSans-Roman-2c"/>
     <use transform="translate(235.40625 0.015625)" xlink:href="#BitstreamVeraSans-Roman-20"/>
     <use transform="translate(267.193359375 0.015625)" xlink:href="#BitstreamVeraSans-Roman-36"/>
     <use transform="translate(330.81640625 0.015625)" xlink:href="#BitstreamVeraSans-Roman-34"/>
     <use transform="translate(394.439453125 0.015625)" xlink:href="#BitstreamVeraSans-Roman-20"/>
     <use transform="translate(426.2265625 0.015625)" xlink:href="#BitstreamVeraSans-Roman-76"/>
     <use transform="translate(485.40625 0.015625)" xlink:href="#BitstreamVeraSans-Roman-65"/>
     <use transform="translate(546.9296875 0.015625)" xlink:href="#BitstreamVeraSans-Roman-72"/>
     <use transform="translate(588.04296875 0.015625)" xlink:href="#BitstreamVeraSans-Roman-74"/>
     <use transform="translate(627.251953125 0.015625)" xlink:href="#BitstreamVeraSans-Roman-69"/>
     <use transform="translate(655.03515625 0.015625)" xlink:href="#BitstreamVeraSans-Roman-63"/>
     <use transform="translate(710.015625 0.015625)" xlink:href="#BitstreamVeraSans-Roman-65"/>
     <use transform="translate(771.5390625 0.015625)" xlink:href="#BitstreamVeraSans-Roman-73"/>
    </g>
   </g>
  </g>
  <g id="axes_6">
   <g id="patch_27">
    <path d="
M395.301 331.687
L524.155 331.687
L524.155 202.833
L395.301 202.833
z
" style="fill:#ffffff;"/>
   </g>
   <g id="PolyCollection_6">
    <defs>
     <path d="
M459.728 -34.1657
L458.29 -34.1833
L456.854 -34.2362
L455.419 -34.3244
L453.987 -34.4477
L452.558 -34.6062
L451.133 -34.7997
L449.714 -35.028
L448.301 -35.2912
L446.894 -35.5889
L445.495 -35.9211
L444.105 -36.2875
L442.725 -36.6879
L441.354 -37.122
L439.995 -37.5897
L438.647 -38.0906
L437.312 -38.6244
L435.991 -39.1908
L434.684 -39.7894
L433.392 -40.42
L432.116 -41.0821
L430.857 -41.7752
L429.615 -42.4991
L428.391 -43.2533
L427.186 -44.0372
L426 -44.8505
L424.835 -45.6927
L423.691 -46.5631
L422.569 -47.4614
L421.469 -48.387
L420.392 -49.3393
L419.338 -50.3177
L418.31 -51.3217
L417.306 -52.3506
L416.327 -53.4039
L415.375 -54.4808
L414.449 -55.5808
L413.551 -56.7032
L412.68 -57.8473
L411.838 -59.0124
L411.025 -60.1978
L410.241 -61.4029
L409.487 -62.6268
L408.763 -63.8688
L408.07 -65.1283
L407.408 -66.4043
L406.777 -67.6962
L406.179 -69.0033
L405.612 -70.3246
L405.078 -71.6594
L404.578 -73.0069
L404.11 -74.3663
L403.676 -75.7368
L403.275 -77.1175
L402.909 -78.5076
L402.577 -79.9063
L402.279 -81.3127
L402.016 -82.726
L401.787 -84.1454
L401.594 -85.5699
L401.436 -86.9987
L401.312 -88.431
L401.224 -89.8659
L401.171 -91.3025
L401.154 -92.74
L401.171 -94.1775
L401.224 -95.6141
L401.312 -97.049
L401.436 -98.4813
L401.594 -99.9101
L401.787 -101.335
L402.016 -102.754
L402.279 -104.167
L402.577 -105.574
L402.909 -106.972
L403.275 -108.363
L403.676 -109.743
L404.11 -111.114
L404.578 -112.473
L405.078 -113.821
L405.612 -115.155
L406.179 -116.477
L406.777 -117.784
L407.408 -119.076
L408.07 -120.352
L408.763 -121.611
L409.487 -122.853
L410.241 -124.077
L411.025 -125.282
L411.838 -126.468
L412.68 -127.633
L413.551 -128.777
L414.449 -129.899
L415.375 -130.999
L416.327 -132.076
L417.306 -133.129
L418.31 -134.158
L419.338 -135.162
L420.392 -136.141
L421.469 -137.093
L422.569 -138.019
L423.691 -138.917
L424.835 -139.787
L426 -140.629
L427.186 -141.443
L428.391 -142.227
L429.615 -142.981
L430.857 -143.705
L432.116 -144.398
L433.392 -145.06
L434.684 -145.691
L435.991 -146.289
L437.312 -146.856
L438.647 -147.389
L439.995 -147.89
L441.354 -148.358
L442.725 -148.792
L444.105 -149.193
L445.495 -149.559
L446.894 -149.891
L448.301 -150.189
L449.714 -150.452
L451.133 -150.68
L452.558 -150.874
L453.987 -151.032
L455.419 -151.156
L456.854 -151.244
L458.29 -151.297
L459.728 -151.314
L461.165 -151.297
L462.602 -151.244
L464.037 -151.156
L465.469 -151.032
L466.898 -150.874
L468.322 -150.68
L469.742 -150.452
L471.155 -150.189
L472.562 -149.891
L473.96 -149.559
L475.35 -149.193
L476.731 -148.792
L478.102 -148.358
L479.461 -147.89
L480.808 -147.389
L482.143 -146.856
L483.465 -146.289
L484.772 -145.691
L486.064 -145.06
L487.34 -144.398
L488.599 -143.705
L489.841 -142.981
L491.065 -142.227
L492.27 -141.443
L493.455 -140.629
L494.621 -139.787
L495.765 -138.917
L496.887 -138.019
L497.987 -137.093
L499.064 -136.141
L500.117 -135.162
L501.146 -134.158
L502.15 -133.129
L503.129 -132.076
L504.081 -130.999
L505.006 -129.899
L505.905 -128.777
L506.775 -127.633
L507.617 -126.468
L508.431 -125.282
L509.215 -124.077
L509.969 -122.853
L510.693 -121.611
L511.386 -120.352
L512.048 -119.076
L512.678 -117.784
L513.277 -116.477
L513.843 -115.155
L514.377 -113.821
L514.878 -112.473
L515.346 -111.114
L515.78 -109.743
L516.18 -108.363
L516.547 -106.972
L516.879 -105.574
L517.177 -104.167
L517.44 -102.754
L517.668 -101.335
L517.862 -99.9101
L518.02 -98.4813
L518.143 -97.049
L518.232 -95.6141
L518.285 -94.1775
L518.302 -92.74
L518.285 -91.3025
L518.232 -89.8659
L518.143 -88.431
L518.02 -86.9987
L517.862 -85.5699
L517.668 -84.1454
L517.44 -82.726
L517.177 -81.3127
L516.879 -79.9063
L516.547 -78.5076
L516.18 -77.1175
L515.78 -75.7368
L515.346 -74.3663
L514.878 -73.0069
L514.377 -71.6594
L513.843 -70.3246
L513.277 -69.0033
L512.678 -67.6962
L512.048 -66.4043
L511.386 -65.1283
L510.693 -63.8688
L509.969 -62.6268
L509.215 -61.4029
L508.431 -60.1978
L507.617 -59.0124
L506.775 -57.8473
L505.905 -56.7032
L505.006 -55.5808
L504.081 -54.4808
L503.129 -53.4039
L502.15 -52.3506
L501.146 -51.3217
L500.117 -50.3177
L499.064 -49.3393
L497.987 -48.387
L496.887 -47.4614
L495.765 -46.5631
L494.621 -45.6927
L493.455 -44.8505
L492.27 -44.0372
L491.065 -43.2533
L489.841 -42.4991
L488.599 -41.7752
L487.34 -41.0821
L486.064 -40.42
L484.772 -39.7894
L483.465 -39.1908
L482.143 -38.6244
L480.808 -38.0906
L479.461 -37.5897
L478.102 -37.122
L476.731 -36.6879
L475.35 -36.2875
L473.96 -35.9211
L472.562 -35.5889
L471.155 -35.2912
L469.742 -35.028
L468.322 -34.7997
L466.898 -34.6062
L465.469 -34.4477
L464.037 -34.3244
L462.602 -34.2362
L461.165 -34.1833
z
" id="m06fb889168" style="stroke:#000000;"/>
    </defs>
    <g clip-path="url(#pcbc8a29bdc)">
     <use style="fill:#bfbfbf;stroke:#000000;" x="0.0" xlink:href="#m06fb889168" y="360.0"/>
    </g>
   </g>
   <g id="patch_28">
    <path d="
M395.301 202.833
L524.155 202.833" style="fill:none;stroke:#000000;stroke-linecap:square;stroke-linejoin:miter;"/>
   </g>
   <g id="patch_29">
    <path d="
M524.155 331.687
L524.155 202.833" style="fill:none;stroke:#000000;stroke-linecap:square;stroke-linejoin:miter;"/>
   </g>
   <g id="patch_30">
    <path d="
M395.301 331.687
L524.155 331.687" style="fill:none;stroke:#000000;stroke-linecap:square;stroke-linejoin:miter;"/>
   </g>
   <g id="patch_31">
    <path d="
M395.301 331.687
L395.301 202.833" style="fill:none;stroke:#000000;stroke-linecap:square;stroke-linejoin:miter;"/>
   </g>
   <g id="matplotlib.axis_11">
    <g id="xtick_26">
     <g id="line2d_101">
      <g>
       <use style="stroke:#000000;stroke-width:0.5;" x="401.157911709" xlink:href="#m93b0483c22" y="331.686908646"/>
      </g>
     </g>
     <g id="line2d_102">
      <g>
       <use style="stroke:#000000;stroke-width:0.5;" x="401.157911709" xlink:href="#m741efc42ff" y="202.833091354"/>
      </g>
     </g>
     <g id="text_56">
      <!-- −1.0 -->
      <g transform="translate(387.622286709 344.805033646)scale(0.12 -0.12)">
       <use xlink:href="#BitstreamVeraSans-Roman-2212"/>
       <use x="83.7890625" xlink:href="#BitstreamVeraSans-Roman-31"/>
       <use x="147.412109375" xlink:href="#BitstreamVeraSans-Roman-2e"/>
       <use x="179.19921875" xlink:href="#BitstreamVeraSans-Roman-30"/>
      </g>
     </g>
    </g>
    <g id="xtick_27">
     <g id="line2d_103">
      <g>
       <use style="stroke:#000000;stroke-width:0.5;" x="430.442870184" xlink:href="#m93b0483c22" y="331.686908646"/>
      </g>
     </g>
     <g id="line2d_104">
      <g>
       <use style="stroke:#000000;stroke-width:0.5;" x="430.442870184" xlink:href="#m741efc42ff" y="202.833091354"/>
      </g>
     </g>
     <g id="text_57">
      <!-- −0.5 -->
      <g transform="translate(417.032870184 344.805033646)scale(0.12 -0.12)">
       <use xlink:href="#BitstreamVeraSans-Roman-2212"/>
       <use x="83.7890625" xlink:href="#BitstreamVeraSans-Roman-30"/>
       <use x="147.412109375" xlink:href="#BitstreamVeraSans-Roman-2e"/>
       <use x="179.19921875" xlink:href="#BitstreamVeraSans-Roman-35"/>
      </g>
     </g>
    </g>
    <g id="xtick_28">
     <g id="line2d_105">
      <g>
       <use style="stroke:#000000;stroke-width:0.5;" x="459.72782866" xlink:href="#m93b0483c22" y="331.686908646"/>
      </g>
     </g>
     <g id="line2d_106">
      <g>
       <use style="stroke:#000000;stroke-width:0.5;" x="459.72782866" xlink:href="#m741efc42ff" y="202.833091354"/>
      </g>
     </g>
     <g id="text_58">
      <!-- 0.0 -->
      <g transform="translate(450.98001616 344.805033646)scale(0.12 -0.12)">
       <use xlink:href="#BitstreamVeraSans-Roman-30"/>
       <use x="63.623046875" xlink:href="#BitstreamVeraSans-Roman-2e"/>
       <use x="95.41015625" xlink:href="#BitstreamVeraSans-Roman-30"/>
      </g>
     </g>
    </g>
    <g id="xtick_29">
     <g id="line2d_107">
      <g>
       <use style="stroke:#000000;stroke-width:0.5;" x="489.012787136" xlink:href="#m93b0483c22" y="331.686908646"/>
      </g>
     </g>
     <g id="line2d_108">
      <g>
       <use style="stroke:#000000;stroke-width:0.5;" x="489.012787136" xlink:href="#m741efc42ff" y="202.833091354"/>
      </g>
     </g>
     <g id="text_59">
      <!-- 0.5 -->
      <g transform="translate(480.390599636 344.805033646)scale(0.12 -0.12)">
       <use xlink:href="#BitstreamVeraSans-Roman-30"/>
       <use x="63.623046875" xlink:href="#BitstreamVeraSans-Roman-2e"/>
       <use x="95.41015625" xlink:href="#BitstreamVeraSans-Roman-35"/>
      </g>
     </g>
    </g>
    <g id="xtick_30">
     <g id="line2d_109">
      <g>
       <use style="stroke:#000000;stroke-width:0.5;" x="518.297745611" xlink:href="#m93b0483c22" y="331.686908646"/>
      </g>
     </g>
     <g id="line2d_110">
      <g>
       <use style="stroke:#000000;stroke-width:0.5;" x="518.297745611" xlink:href="#m741efc42ff" y="202.833091354"/>
      </g>
     </g>
     <g id="text_60">
      <!-- 1.0 -->
      <g transform="translate(509.813370611 344.805033646)scale(0.12 -0.12)">
       <use xlink:href="#BitstreamVeraSans-Roman-31"/>
       <use x="63.623046875" xlink:href="#BitstreamVeraSans-Roman-2e"/>
       <use x="95.41015625" xlink:href="#BitstreamVeraSans-Roman-30"/>
      </g>
     </g>
    </g>
   </g>
   <g id="matplotlib.axis_12">
    <g id="ytick_26">
     <g id="line2d_111">
      <g>
       <use style="stroke:#000000;stroke-width:0.5;" x="395.300920014" xlink:href="#m728421d6d4" y="325.829916951"/>
      </g>
     </g>
     <g id="line2d_112">
      <g>
       <use style="stroke:#000000;stroke-width:0.5;" x="524.154737306" xlink:href="#mcb0005524f" y="325.829916951"/>
      </g>
     </g>
     <g id="text_61">
      <!-- −1.0 -->
      <g transform="translate(364.229670014 329.141166951)scale(0.12 -0.12)">
       <use xlink:href="#BitstreamVeraSans-Roman-2212"/>
       <use x="83.7890625" xlink:href="#BitstreamVeraSans-Roman-31"/>
       <use x="147.412109375" xlink:href="#BitstreamVeraSans-Roman-2e"/>
       <use x="179.19921875" xlink:href="#BitstreamVeraSans-Roman-30"/>
      </g>
     </g>
    </g>
    <g id="ytick_27">
     <g id="line2d_113">
      <g>
       <use style="stroke:#000000;stroke-width:0.5;" x="395.300920014" xlink:href="#m728421d6d4" y="296.544958476"/>
      </g>
     </g>
     <g id="line2d_114">
      <g>
       <use style="stroke:#000000;stroke-width:0.5;" x="524.154737306" xlink:href="#mcb0005524f" y="296.544958476"/>
      </g>
     </g>
     <g id="text_62">
      <!-- −0.5 -->
      <g transform="translate(364.480920014 299.856208476)scale(0.12 -0.12)">
       <use xlink:href="#BitstreamVeraSans-Roman-2212"/>
       <use x="83.7890625" xlink:href="#BitstreamVeraSans-Roman-30"/>
       <use x="147.412109375" xlink:href="#BitstreamVeraSans-Roman-2e"/>
       <use x="179.19921875" xlink:href="#BitstreamVeraSans-Roman-35"/>
      </g>
     </g>
    </g>
    <g id="ytick_28">
     <g id="line2d_115">
      <g>
       <use style="stroke:#000000;stroke-width:0.5;" x="395.300920014" xlink:href="#m728421d6d4" y="267.26"/>
      </g>
     </g>
     <g id="line2d_116">
      <g>
       <use style="stroke:#000000;stroke-width:0.5;" x="524.154737306" xlink:href="#mcb0005524f" y="267.26"/>
      </g>
     </g>
     <g id="text_63">
      <!-- 0.0 -->
      <g transform="translate(373.805295014 270.57125)scale(0.12 -0.12)">
       <use xlink:href="#BitstreamVeraSans-Roman-30"/>
       <use x="63.623046875" xlink:href="#BitstreamVeraSans-Roman-2e"/>
       <use x="95.41015625" xlink:href="#BitstreamVeraSans-Roman-30"/>
      </g>
     </g>
    </g>
    <g id="ytick_29">
     <g id="line2d_117">
      <g>
       <use style="stroke:#000000;stroke-width:0.5;" x="395.300920014" xlink:href="#m728421d6d4" y="237.975041524"/>
      </g>
     </g>
     <g id="line2d_118">
      <g>
       <use style="stroke:#000000;stroke-width:0.5;" x="524.154737306" xlink:href="#mcb0005524f" y="237.975041524"/>
      </g>
     </g>
     <g id="text_64">
      <!-- 0.5 -->
      <g transform="translate(374.056545014 241.286291524)scale(0.12 -0.12)">
       <use xlink:href="#BitstreamVeraSans-Roman-30"/>
       <use x="63.623046875" xlink:href="#BitstreamVeraSans-Roman-2e"/>
       <use x="95.41015625" xlink:href="#BitstreamVeraSans-Roman-35"/>
      </g>
     </g>
    </g>
    <g id="ytick_30">
     <g id="line2d_119">
      <g>
       <use style="stroke:#000000;stroke-width:0.5;" x="395.300920014" xlink:href="#m728421d6d4" y="208.690083049"/>
      </g>
     </g>
     <g id="line2d_120">
      <g>
       <use style="stroke:#000000;stroke-width:0.5;" x="524.154737306" xlink:href="#mcb0005524f" y="208.690083049"/>
      </g>
     </g>
     <g id="text_65">
      <!-- 1.0 -->
      <g transform="translate(374.332170014 212.001333049)scale(0.12 -0.12)">
       <use xlink:href="#BitstreamVeraSans-Roman-31"/>
       <use x="63.623046875" xlink:href="#BitstreamVeraSans-Roman-2e"/>
       <use x="95.41015625" xlink:href="#BitstreamVeraSans-Roman-30"/>
      </g>
     </g>
    </g>
   </g>
   <g id="text_66">
    <!-- $k=7$, 256 vertices -->
    <defs>
     <path d="
M17.3906 2.59375
Q17.3906 8.15625 18.3594 13.4688
Q19.3438 18.7969 21.2188 24
Q23.0938 29.2031 25.75 34.2031
Q28.4219 39.2031 31.5938 43.6094
L40.7188 56.2969
L29.2969 56.2969
Q11.5312 56.2969 10.9844 55.8125
Q9.67188 54.2031 8.5 46.5781
L5.60938 46.5781
L8.89062 67.5781
L11.8125 67.5781
L11.8125 67.2812
Q11.8125 65.4844 17.9219 64.9375
Q24.0312 64.4062 29.8906 64.4062
L48.4844 64.4062
L48.4844 61.8125
Q48.4844 61.7188 48.4531 61.6719
Q48.4375 61.625 48.3906 61.5312
L34.625 42.1875
Q29.5469 34.6719 28.2656 25.4844
Q27 16.3125 27 2.59375
Q27 0.640625 25.5781 -0.78125
Q24.1719 -2.20312 22.2188 -2.20312
Q20.2188 -2.20312 18.7969 -0.78125
Q17.3906 0.640625 17.3906 2.59375" id="Cmr10-37"/>
    </defs>
    <g transform="translate(395.79182866 197.833091354)scale(0.144 -0.144)">
     <use transform="translate(0.0 0.015625)" xlink:href="#Cmmi10-6b"/>
     <use transform="translate(69.560546875 0.015625)" xlink:href="#Cmr10-3d"/>
     <use transform="translate(153.619140625 0.015625)" xlink:href="#Cmr10-37"/>
     <use transform="translate(203.619140625 0.015625)" xlink:href="#BitstreamVeraSans-Roman-2c"/>
     <use transform="translate(235.40625 0.015625)" xlink:href="#BitstreamVeraSans-Roman-20"/>
     <use transform="translate(267.193359375 0.015625)" xlink:href="#BitstreamVeraSans-Roman-32"/>
     <use transform="translate(330.81640625 0.015625)" xlink:href="#BitstreamVeraSans-Roman-35"/>
     <use transform="translate(394.439453125 0.015625)" xlink:href="#BitstreamVeraSans-Roman-36"/>
     <use transform="translate(458.0625 0.015625)" xlink:href="#BitstreamVeraSans-Roman-20"/>
     <use transform="translate(489.849609375 0.015625)" xlink:href="#BitstreamVeraSans-Roman-76"/>
     <use transform="translate(549.029296875 0.015625)" xlink:href="#BitstreamVeraSans-Roman-65"/>
     <use transform="translate(610.552734375 0.015625)" xlink:href="#BitstreamVeraSans-Roman-72"/>
     <use transform="translate(651.666015625 0.015625)" xlink:href="#BitstreamVeraSans-Roman-74"/>
     <use transform="translate(690.875 0.015625)" xlink:href="#BitstreamVeraSans-Roman-69"/>
     <use transform="translate(718.658203125 0.015625)" xlink:href="#BitstreamVeraSans-Roman-63"/>
     <use transform="translate(773.638671875 0.015625)" xlink:href="#BitstreamVeraSans-Roman-65"/>
     <use transform="translate(835.162109375 0.015625)" xlink:href="#BitstreamVeraSans-Roman-73"/>
    </g>
   </g>
  </g>
 </g>
 <defs>
  <clipPath id="pa1da38c055">
   <rect height="128.853817293" width="128.853817293" x="219.623428757" y="202.833091354"/>
  </clipPath>
  <clipPath id="pa1a909668b">
   <rect height="128.853817293" width="128.853817293" x="43.9459375" y="202.833091354"/>
  </clipPath>
  <clipPath id="pcbc8a29bdc">
   <rect height="128.853817293" width="128.853817293" x="395.300920014" y="202.833091354"/>
  </clipPath>
  <clipPath id="p2855b56212">
   <rect height="128.853817293" width="128.853817293" x="43.9459375" y="29.3130913536"/>
  </clipPath>
  <clipPath id="p7cd1a8e5d9">
   <rect height="128.853817293" width="128.853817293" x="395.300920014" y="29.3130913536"/>
  </clipPath>
  <clipPath id="p40af87b094">
   <rect height="128.853817293" width="128.853817293" x="219.623428757" y="29.3130913536"/>
  </clipPath>
 </defs>
</svg>
